<?xml version="1.0" standalone="no"?>
<!DOCTYPE svg PUBLIC "-//W3C//DTD SVG 20010904//EN" "http://www.w3.org/TR/2001/REC-SVG-20010904/DTD/svg10.dtd">
<!-- Created using Krita: https://krita.org -->
<svg xmlns="http://www.w3.org/2000/svg" 
    xmlns:xlink="http://www.w3.org/1999/xlink"
    xmlns:krita="http://krita.org/namespaces/svg/krita"
    xmlns:sodipodi="http://sodipodi.sourceforge.net/DTD/sodipodi-0.dtd"
    width="345.36pt"
    height="210.24pt"
    viewBox="0 0 345.36 210.24">
<defs/>
<text id="shape1" krita:useRichText="true" transform="matrix(0.989129043919073 -0.147049931042541 0.147049931042541 0.989129043919073 51.5161807103981 42.5005332144541)" fill="#3c1f14" stroke="#000000" stroke-opacity="0" stroke-width="0" stroke-linecap="square" stroke-linejoin="bevel" font-family="Dancing Script" font-size="8" font-size-adjust="0.276059" font-stretch="normal" letter-spacing="0" word-spacing="0"><tspan x="0">level</tspan></text><text id="shape03" krita:useRichText="true" transform="matrix(0.988817782922242 -0.149128570983181 0.149128570983181 0.988817782922242 110.356019845277 37.4670684178552)" fill="#3c1f14" stroke="#000000" stroke-opacity="0" stroke-width="0" stroke-linecap="square" stroke-linejoin="bevel" font-family="Dancing Script" font-size="8" font-size-adjust="0.276059" font-stretch="normal" letter-spacing="0" word-spacing="0"><tspan x="0">ac</tspan></text><text id="shape04" krita:useRichText="true" transform="matrix(0.962847567676596 0.270045288337068 -0.270045288337068 0.962847567676596 58.5117311235224 61.0567449122991)" fill="#3c1f14" stroke="#000000" stroke-opacity="0" stroke-width="0" stroke-linecap="square" stroke-linejoin="bevel" font-family="Dancing Script" font-size="6" font-size-adjust="0.276059" font-stretch="normal" letter-spacing="0" word-spacing="0"><tspan x="0">initiative</tspan></text><text id="shape05" krita:useRichText="true" transform="matrix(0.185545128123606 -0.982635661237785 0.982635661237785 0.185545128123606 157.102331377791 75.9485619255101)" fill="#3c1f14" stroke="#000000" stroke-opacity="0" stroke-width="0" stroke-linecap="square" stroke-linejoin="bevel" font-family="Dancing Script" font-size="8" font-size-adjust="0.276059" font-stretch="normal" letter-spacing="0" word-spacing="0"><tspan x="0">speed</tspan></text><text id="shape06" krita:useRichText="true" transform="matrix(0.999999946243649 0 0 0.999999946243649 52.3488828725527 91.5581782124593)" fill="#3c1f14" stroke="#000000" stroke-opacity="0" stroke-width="0" stroke-linecap="square" stroke-linejoin="bevel" font-family="Dancing Script" font-size="7" font-size-adjust="0.276059" font-stretch="normal" letter-spacing="0" word-spacing="0"><tspan x="0">hp</tspan></text><path id="shape3" transform="matrix(0.999999973871932 0 0 0.999999973871932 53.79403536978 99.4448346056789)" fill="none" stroke="#3c1f14" stroke-width="0.48" stroke-linecap="square" stroke-linejoin="bevel" d="M15.3584 0C15.3584 1.48659 1.33522 17.8191 0 17.8191"/><path id="shape4" transform="matrix(0.999999973871937 0 0 0.999999973871937 57.3605121994884 136.782731635981)" fill="none" stroke="#3c1f14" stroke-width="0.48" stroke-linecap="square" stroke-linejoin="bevel" d="M0 0.339411C2.60319 0.339411 4.9809 0 7.46705 0"/><path id="shape5" transform="matrix(0.999999973871937 0 0 0.999999973871937 60.9243302694084 133.388619188438)" fill="none" stroke="#3c1f14" stroke-width="0.48" stroke-linecap="square" stroke-linejoin="bevel" d="M0 0C0 2.25484 0.339411 4.6589 0.339411 6.95793"/><path id="shape6" transform="matrix(0.999999973871937 0 0 0.999999973871937 44.8658189367069 143.061839663935)" fill="none" stroke="#3c1f14" stroke-width="0.48" stroke-linecap="square" stroke-linejoin="bevel" d="M20.98 1.35765C20.98 0.125399 16.202 0 15.21 0C-2.01829 0 -5.45811 29.2014 9.27029 34.1108C37.0371 43.3664 36.7203 2.37588 19.792 2.37588"/><text id="shape7" krita:useRichText="true" transform="matrix(0.999999973871937 0 0 0.999999973871937 52.2693435281739 152.667726876728)" fill="#3c1f14" stroke="#000000" stroke-opacity="0" stroke-width="0" stroke-linecap="square" stroke-linejoin="bevel" font-family="Dancing Script" font-size="7" font-size-adjust="0.276059" font-stretch="normal" letter-spacing="0" word-spacing="0"><tspan x="0">temp</tspan></text><text id="shape0" krita:useRichText="true" transform="translate(130.560268475653, 99.6351152453214)" fill="#34120c" stroke="#000000" stroke-opacity="0" stroke-width="0" stroke-linecap="square" stroke-linejoin="bevel" font-family="Dancing Script" font-size="7" font-size-adjust="0.276059" font-stretch="normal" letter-spacing="0" word-spacing="0"><tspan x="0">hit dice</tspan></text><g id="group0" transform="matrix(0.0495270565315451 0 0 0.0495270565315451 92.3953089593341 92.4346178576022)" fill="none">
  <path id="shape1" transform="translate(72, 37.143)" fill="#34120c" stroke="#000000" stroke-opacity="0" stroke-width="0" stroke-linecap="square" stroke-linejoin="bevel" d="M184 0L5.896 306.71L362.104 306.71ZM158.154 12.647L0 127.09L0 285ZM209.844 12.647L368 285.001L368 127.089ZM77.328 102.667L77.328 124.453L68.842 134.133L68.842 117.191C66.07 120.431 63.15 123.558 60.457 126.855C63.993 127.148 62.941 132.285 62.664 134.607C60.918 144.143 54.51 152.182 49.26 159.397C47.317 161.941 45.317 164.472 43.252 166.904C38.602 170.304 34.762 171.294 32.477 165.441C32.771 157.635 36.317 150.221 40.523 144.474L45.811 136.556C45.763 139.018 45.911 141.526 45.739 143.961C43.399 148.308 38.973 153.421 39.981 158.569C47.741 159.443 52.201 147.706 54.503 141.989C55.335 139.229 56.611 136.531 53.085 136.555L53.085 129.291ZM289.458 103.877L334.311 158.341L334.311 165.603L304.007 129.293L304.007 137.765L297.947 130.503C297.792 126.353 296.523 122.126 295.522 118.4C293.662 115.464 291.562 112.696 289.462 109.93ZM184.07 166.717C192.44 166.717 198.803 168.247 203.158 171.304C207.513 174.331 209.691 178.779 209.691 184.648C209.691 188.572 208.611 191.846 206.448 194.471C204.318 197.097 201.151 199.043 196.95 200.309C201.644 201.607 205.18 203.724 207.56 206.659C209.968 209.561 211.174 213.235 211.174 217.683C211.174 224.54 208.888 229.73 204.316 233.253C199.776 236.743 193.028 238.486 184.07 238.486C175.082 238.486 168.286 236.742 163.684 233.252C159.112 229.73 156.826 224.54 156.826 217.682C156.826 213.235 158.016 209.562 160.396 206.658C162.804 203.723 166.356 201.606 171.051 200.308C166.851 199.043 163.685 197.098 161.554 194.471C159.424 191.846 158.356 188.571 158.356 184.649C158.356 178.812 160.536 174.364 164.89 171.306C169.244 168.248 175.638 166.72 184.07 166.72ZM184.07 177.929C181.23 177.929 179.035 178.671 177.49 180.154C175.977 181.636 175.22 183.737 175.22 186.454C175.22 189.204 175.977 191.32 177.49 192.802C179.035 194.285 181.23 195.027 184.07 195.027C186.85 195.027 188.996 194.285 190.51 192.802C192.023 191.32 192.78 189.204 192.78 186.455C192.78 183.705 192.023 181.605 190.51 180.155C188.996 178.671 186.85 177.929 184.07 177.929ZM184.07 206.191C180.734 206.191 178.17 207.103 176.38 208.925C174.587 210.748 173.69 213.358 173.69 216.755C173.69 220.153 174.587 222.763 176.38 224.585C178.17 226.377 180.734 227.273 184.07 227.273C187.375 227.273 189.907 226.377 191.668 224.586C193.428 222.762 194.308 220.152 194.308 216.754C194.308 213.326 193.428 210.716 191.668 208.924C189.908 207.102 187.375 206.19 184.07 206.19ZM16.7 322.709L184 443.769L351.3 322.709ZM156.12 345.939L210.668 345.939L210.668 350.781C196.262 356.723 189.086 363.678 182.788 376.197L167.028 376.197C174.132 362.394 181.574 358.483 193.698 350.781L156.118 350.781Z"/>
 </g><path id="shape2" transform="matrix(0.999999068865749 0.00136464927200924 -0.00136464927200924 0.999999068865749 43.7430255925824 84.2337652638635)" fill="none" stroke="#3c1f14" stroke-width="0.48" stroke-linecap="square" stroke-linejoin="bevel" d="M11.1267 0C39.9689 0 44.2324 48.8511 14.7754 45.9054C-5.14051 43.9138 -3.9379 0 12.4843 0"/><text id="shape3" krita:useRichText="true" transform="matrix(0.984662754075925 -0.174468509295031 0.174468509295031 0.984662754075925 97.3642324103986 135.438371862964)" fill="#3c1f14" stroke="#000000" stroke-opacity="0" stroke-width="0" stroke-linecap="square" stroke-linejoin="bevel" font-family="Dancing Script" font-size="7" font-size-adjust="0.276059" font-stretch="normal" letter-spacing="0" word-spacing="0"><tspan x="0">inspiration</tspan></text><text id="shape4" krita:useRichText="true" transform="matrix(0.999992342877653 0.00391333439462049 -0.00391333439462049 0.999992342877653 96.7088388809377 173.37774363677)" fill="#3c1f14" stroke="#000000" stroke-opacity="0" stroke-width="0" stroke-linecap="square" stroke-linejoin="bevel" font-family="Dancing Script" font-size="6" font-size-adjust="0.276059" font-stretch="normal" letter-spacing="0" word-spacing="0"><tspan x="0">proficiency</tspan><tspan x="0" dy="9.59375">bonus</tspan></text><text id="shape5" krita:useRichText="true" transform="matrix(0.999999068865749 0.00136464927200924 -0.00136464927200924 0.999999068865749 283.49953131536 20.5939623040726)" fill="#3c1f14" stroke="#000000" stroke-opacity="0" stroke-width="0" stroke-linecap="square" stroke-linejoin="bevel" font-family="Dancing Script" font-size="8" font-size-adjust="0.276059" font-stretch="normal" letter-spacing="0" word-spacing="0"><tspan x="0">abilities</tspan></text><text id="shape6" krita:useRichText="true" transform="matrix(0.999999068865749 0.00136464927200924 -0.00136464927200924 0.999999068865749 194.351619423689 35.5852549111818)" fill="#3c1f14" stroke="#000000" stroke-opacity="0" stroke-width="0" stroke-linecap="square" stroke-linejoin="bevel" font-family="Dancing Script" font-size="6" font-size-adjust="0.276059" font-stretch="normal" letter-spacing="0" word-spacing="0"><tspan x="0">str</tspan></text><text id="shape0" krita:useRichText="true" transform="matrix(0.999999058081421 0.0013646492572924 -0.0013646492572924 0.999999058081421 237.472409771371 29.2027706688087)" fill="#3c1f14" stroke="#000000" stroke-opacity="0" stroke-width="0" stroke-linecap="square" stroke-linejoin="bevel" font-family="Dancing Script" font-size="6" font-size-adjust="0.276059" font-stretch="normal" letter-spacing="0" word-spacing="0"><tspan x="0">con</tspan></text><text id="shape01" krita:useRichText="true" transform="matrix(0.999999037206688 0.00136464922880568 -0.00136464922880568 0.999999037206688 282.399714372803 36.7960023152213)" fill="#3c1f14" stroke="#000000" stroke-opacity="0" stroke-width="0" stroke-linecap="square" stroke-linejoin="bevel" font-family="Dancing Script" font-size="6" font-size-adjust="0.276059" font-stretch="normal" letter-spacing="0" word-spacing="0"><tspan x="0">wis</tspan></text><text id="shape02" krita:useRichText="true" transform="matrix(0.999999037206688 0.00136464922880568 -0.00136464922880568 0.999999037206688 193.218862508097 106.114652047918)" fill="#3c1f14" stroke="#000000" stroke-opacity="0" stroke-width="0" stroke-linecap="square" stroke-linejoin="bevel" font-family="Dancing Script" font-size="6" font-size-adjust="0.276059" font-stretch="normal" letter-spacing="0" word-spacing="0"><tspan x="0">dex</tspan></text><text id="shape03" krita:useRichText="true" transform="matrix(0.999999037206688 0.00136464922880568 -0.00136464922880568 0.999999037206688 237.425000566125 93.6718876628323)" fill="#3c1f14" stroke="#000000" stroke-opacity="0" stroke-width="0" stroke-linecap="square" stroke-linejoin="bevel" font-family="Dancing Script" font-size="6" font-size-adjust="0.276059" font-stretch="normal" letter-spacing="0" word-spacing="0"><tspan x="0">int</tspan></text><text id="shape04" krita:useRichText="true" transform="matrix(0.999999037206688 0.00136464922880568 -0.00136464922880568 0.999999037206688 281.320975491442 132.643684775138)" fill="#3c1f14" stroke="#000000" stroke-opacity="0" stroke-width="0" stroke-linecap="square" stroke-linejoin="bevel" font-family="Dancing Script" font-size="6" font-size-adjust="0.276059" font-stretch="normal" letter-spacing="0" word-spacing="0"><tspan x="0">cha</tspan></text>
</svg>
