<?xml version="1.0" encoding="UTF-8" standalone="no"?>
<!-- Created with Inkscape (http://www.inkscape.org/) -->

<svg
   width="600"
   height="265.42377"
   viewBox="0 0 158.75 70.226705"
   version="1.1"
   id="svg1"
   sodipodi:docname="Inventory.svg"
   inkscape:version="1.3 (0e150ed6c4, 2023-07-21)"
   xmlns:inkscape="http://www.inkscape.org/namespaces/inkscape"
   xmlns:sodipodi="http://sodipodi.sourceforge.net/DTD/sodipodi-0.dtd"
   xmlns="http://www.w3.org/2000/svg"
   xmlns:svg="http://www.w3.org/2000/svg"
   xmlns:rdf="http://www.w3.org/1999/02/22-rdf-syntax-ns#"
   xmlns:cc="http://creativecommons.org/ns#"
   xmlns:dc="http://purl.org/dc/elements/1.1/">
  <title
     id="title1">7Asset 4</title>
  <sodipodi:namedview
     id="namedview1"
     pagecolor="#ffffff"
     bordercolor="#000000"
     borderopacity="0.25"
     inkscape:showpageshadow="2"
     inkscape:pageopacity="0.0"
     inkscape:pagecheckerboard="0"
     inkscape:deskcolor="#d1d1d1"
     inkscape:document-units="px"
     inkscape:zoom="1.0990186"
     inkscape:cx="318.011"
     inkscape:cy="236.5747"
     inkscape:window-width="1590"
     inkscape:window-height="1352"
     inkscape:window-x="3502"
     inkscape:window-y="1081"
     inkscape:window-maximized="0"
     inkscape:current-layer="layer1" />
  <defs
     id="defs1">
    <rect
       x="1810.7856"
       y="917.57306"
       width="125.18511"
       height="51.427391"
       id="rect3" />
    <rect
       x="1642.97"
       y="904.03949"
       width="625.2489"
       height="224.65652"
       id="rect2" />
    <rect
       x="1810.7856"
       y="917.57306"
       width="125.18511"
       height="51.427391"
       id="rect3-6" />
  </defs>
  <g
     inkscape:label="Layer 1"
     inkscape:groupmode="layer"
     id="layer1"
     transform="translate(0,-5.5371366)">
    <rect
       style="fill:none;stroke:#cc3333;stroke-width:0.526256;stroke-dasharray:none;stroke-opacity:1"
       id="rect1"
       width="134.4113"
       height="25.932129"
       x="12.169352"
       y="29.367294" />
    <path
       d="m 1820.6412,958.4429 q -0.64,-0.128 -1.408,-0.512 -0.768,-0.384 -1.408,-0.98134 -0.64,-0.55466 -0.9387,-1.152 -1.0667,-2.176 -1.1947,-4.608 -0.085,-2.47467 0.64,-5.97334 0.2134,-0.72533 0.5547,-1.96267 0.384,-1.23733 0.8107,-2.47466 0.4266,-1.23734 0.768,-2.09067 0.3413,-0.85334 0.4266,-0.85334 0.128,-0.128 0.128,-0.72533 0,-0.21333 0.3414,-0.896 0.384,-0.72533 0.9386,-1.62134 0.5974,-0.896 1.1947,-1.70666 0.64,-0.85334 1.1947,-1.32267 0.8533,-1.10933 1.92,-1.87734 1.1093,-0.81066 2.176,-1.36533 0.256,-0.17067 0.7253,-0.384 0.512,-0.21333 1.1093,-0.384 0.5974,-0.17067 1.0667,-0.21333 2.1333,-0.128 3.2,0.512 1.0667,0.64 1.8773,2.304 0.8534,0.93867 0.9387,1.792 0.085,0.85333 0.256,2.09067 0,1.152 -0.256,2.73067 -0.2133,1.536 -0.5973,3.072 -0.384,1.49333 -0.8534,2.51733 -0.4693,0.98134 -0.896,0.98134 0,0 -0.128,0.0427 -0.128,0 -0.128,0.21334 0.085,0.29867 -0.1706,1.36533 -0.256,1.024 -0.896,2.26134 -1.3654,3.84 -3.2427,6.44267 -1.8347,2.56 -3.9253,3.79734 -2.0907,1.23733 -4.224,0.98133 z m 8.7893,2.34667 q -0.6827,0.0427 -1.3653,-0.512 -0.6827,-0.512 -0.8534,-1.06667 -0.2986,-0.256 -0.2986,-0.512 0,-0.21333 -0.085,-0.29867 -0.1706,-0.0853 -0.4693,-0.46933 -0.2987,-0.34133 -0.4267,-0.81067 -0.2986,-0.59733 -0.896,-1.70667 -0.5546,-1.152 -1.1946,-2.34666 -0.64,-1.23734 -1.152,-2.13334 -0.4694,-0.93867 -0.5547,-1.06667 -0.3413,-0.34133 0.085,-0.85333 0.2134,-0.512 0.4694,-0.59733 0.2986,-0.0853 1.1093,0.128 0.9813,0 1.792,2.048 0.043,0.21333 0.384,1.024 0.3413,0.81066 0.768,1.62133 0.4267,0.768 0.6827,0.98134 0.2133,0.46933 0.4693,1.06666 0.256,0.59734 0.5547,0.98134 0.128,0.46933 0.5546,1.024 0.4267,0.55467 0.5974,1.152 0.9813,1.536 0.9386,1.96267 0,0.42666 -1.1093,0.384 z m -8.448,-4.82134 q 1.792,-0.21333 3.5413,-2.00533 1.792,-1.83467 3.3707,-4.77867 1.6213,-2.98667 2.9013,-6.61334 0.384,-1.06667 0.9387,-2.34667 0.5547,-1.32267 0.9813,-2.90134 0.4267,-1.57866 0.4267,-3.328 0.256,-1.87733 -0.128,-2.77333 -0.384,-0.89601 -1.408,-1.36534 -1.3653,-0.512 -3.0293,0.21333 -1.6214,0.68267 -3.2,2.51734 -1.5787,1.83467 -2.816,4.82134 -1.7494,3.712 -2.7734,6.656 -1.024,2.944 -1.3226,5.29067 -0.2987,2.34667 0.128,4.26667 0.085,1.32267 0.6826,1.96267 0.64,0.68267 1.7067,0.384 z m 25.6854,-0.64 q -0.4267,-0.42667 -0.8534,-1.152 -0.4266,-0.768 -0.6826,-1.74934 -0.085,-0.34133 -0.085,-0.93866 0.043,-0.59734 0,-0.85334 -0.128,0.29867 -0.4266,0.64 -0.256,0.29867 -0.512,0.512 -0.1707,0.17067 -0.768,0.68267 -0.5974,0.46934 -1.1947,0.768 -1.408,0.896 -2.3467,0.98134 -0.896,0.0853 -1.7066,-0.93867 -0.6827,-0.55467 -0.9814,-1.23734 -0.256,-0.68266 0,-1.87733 0.085,-1.49333 0.4267,-2.90134 0.3413,-1.45066 1.408,-3.84 0.896,-1.74933 1.3653,-2.56 0.4694,-0.85333 0.5974,-1.024 0.64,-0.21333 1.0666,0.0427 0.4267,0.21333 0.512,0.81066 0.256,0.42667 -0.085,1.45067 -0.2987,1.024 -1.0667,2.51734 -0.5973,1.45066 -1.1093,2.90133 -0.4693,1.45067 -0.5547,2.47467 -0.085,1.024 0.512,1.23733 0.384,0.21334 1.3227,-0.128 0.9813,-0.34133 2.176,-1.70666 1.2373,-1.36534 2.3893,-4.13867 0.3414,-0.85334 0.5121,-1.49334 0.1706,-0.68267 0.2133,-1.49333 -0.085,-0.512 0.043,-0.896 0.1706,-0.42667 0.6826,-0.72534 0.1707,-0.21333 0.4694,-0.384 0.2986,-0.21333 0.384,0 l 0.6826,-0.0427 q 0.1707,-0.0427 0.2134,0.21333 0.085,0.21333 0.2986,0.384 0.4694,0.384 0.256,1.664 -0.2133,1.28 -1.1946,3.584 -0.8107,1.74934 -1.1094,2.64534 -0.256,0.896 -0.2986,1.74933 0,0.768 0.2986,1.45067 0.2987,0.68267 0.9387,1.23734 0.4693,0.29866 0.512,0.68266 0.085,0.384 0.043,0.896 -0.085,0.384 -0.512,0.64 -0.384,0.21334 -0.896,0.21334 -0.512,0 -0.9387,-0.29867 z m 9.216,-1.152 q -0.3413,0.0853 -0.896,0.0853 -0.5546,-0.0427 -0.9813,-0.128 -0.384,-0.128 -0.384,-0.256 0,-0.21333 -0.2133,-0.21333 0,0 -0.2134,-0.17067 -0.1706,-0.17066 -0.5546,-0.34133 -0.384,-0.59734 -0.384,-1.28 0,-0.72534 0.384,-2.26134 0.128,-1.06666 0.8106,-2.47467 0.7254,-1.45066 1.7494,-2.944 1.024,-1.49333 2.1333,-2.688 1.152,-1.19467 2.0907,-1.74933 0.5973,-0.59734 1.4506,-0.64001 0.8534,-0.0427 1.6214,0.38401 0.4266,0.21333 0.8533,0.68266 0.4267,0.46934 0.8107,1.024 0.384,0.55467 0.64,1.10934 0.128,0.46933 0.128,0.85333 0.043,0.34133 0,0.85334 0,0.512 -0.128,1.536 -0.2134,0.768 -0.384,1.87733 -0.128,1.10934 -0.128,1.92 -0.085,0.81067 0.1706,1.152 0.2987,0.34134 0.8534,0.0427 0.512,-0.256 0.9813,-0.21333 0.4693,0 0.7253,0.256 0.2987,0.256 0.2987,0.768 0,0.512 -0.512,1.06666 -0.4693,0.51201 -1.1947,0.89601 -0.6826,0.34133 -1.3226,0.34133 -0.4694,0 -0.896,-0.55467 -0.4267,-0.59733 -0.768,-1.408 -0.2987,-0.85333 -0.5547,-1.62133 l -0.256,-0.98134 -1.8347,1.74934 q -0.5546,0.59733 -1.1093,1.10933 -0.512,0.46933 -0.64,0.68267 -0.2133,0.384 -0.8107,0.768 -0.5546,0.384 -1.536,0.768 z m 0.128,-2.51734 q 0.7254,-0.42666 1.664,-1.23733 0.9387,-0.85333 1.8347,-1.83467 0.896,-1.024 1.4933,-1.87733 0.7254,-0.98134 1.1094,-1.83467 0.384,-0.85333 0.5546,-1.62134 -0.1706,-0.46933 -0.5546,-0.98133 -0.384,-0.55467 -0.6827,-0.59733 -0.9387,0 -2.0053,1.19466 -1.024,1.15201 -2.0054,2.51734 -0.1706,0.21333 -0.4693,0.68267 -0.2987,0.46933 -0.5973,0.896 -0.256,0.384 -0.3414,0.512 -0.128,0.17066 -0.512,0.98133 -0.3413,0.768 -0.6826,1.57867 -0.3414,0.768 -0.3414,1.024 0,0.256 0.043,0.55467 0.085,0.29866 0.4267,0.384 0.3413,0.0853 1.0666,-0.34134 z m 28.4587,1.79201 q -0.8534,0 -1.408,-0.34134 -0.5547,-0.384 -0.9387,-1.23733 -0.1707,-0.59734 -0.2987,-1.32267 -0.085,-0.768 -0.085,-1.408 0,-0.68267 0.128,-0.896 0.1707,-0.17067 0.128,-0.59734 0,-0.46933 0,-0.98133 -0.043,-0.85333 -0.4267,-0.93867 -0.3413,-0.128 -1.024,0.256 -0.768,0.46934 -2.0053,1.28 -1.2373,0.768 -2.6027,1.70667 -1.3226,0.93867 -2.5173,1.96267 -0.9387,1.024 -1.152,1.57867 -0.1707,0.512 -0.512,0.512 -0.3413,0.17067 -0.5973,0.0427 -0.2134,-0.17067 -0.64,-0.51201 -0.2987,-0.34133 -0.5974,-0.64 -0.2986,-0.34133 -0.384,-0.512 0,-0.21333 0.128,-0.896 0.128,-0.68266 0.2987,-1.36533 0.2133,-0.68267 0.2987,-0.896 0.2133,0 0.3413,-0.42667 0.1707,-0.42667 0.512,-0.93867 0.085,-0.512 0.4267,-1.36533 0.384,-0.896 0.6826,-1.57867 0.5974,-1.024 0.8107,-1.70667 0.256,-0.68266 0.3413,-1.70666 -0.043,-0.17067 0.085,-0.29867 0.128,-0.17067 0.2986,-0.17067 v 0 0 q 0.3414,-0.34133 0.8107,-0.17066 0.4693,0.128 0.8533,0.64 0.768,1.024 0.5974,2.13333 -0.128,1.06667 -1.3654,3.072 -0.2986,0.68267 -0.4693,1.06667 -0.128,0.34133 -0.128,0.55467 0,0 0.4267,-0.29867 0.4693,-0.29867 1.024,-0.68267 0.5973,-0.42666 0.9386,-0.64 0.2134,-0.21333 0.9814,-0.768 0.768,-0.55466 1.6213,-1.06666 0.896,-0.55467 1.3227,-0.64001 0.3413,-0.17066 0.7253,-0.29866 0.384,-0.17067 0.5547,-0.17067 0.3413,0 0.8533,0.384 0.5547,0.34133 1.024,0.85334 0.4693,0.46933 0.5547,0.81066 0,0.17067 0,0.34134 0.043,0.17066 0.085,0.34133 0.1707,0.55467 0.1707,1.49333 0.043,0.93867 -0.043,1.70667 -0.085,0.768 -0.2987,0.896 0,0 0,0.128 0.043,0.0853 0.2134,0.0853 0,0.17066 0,0.21333 0,0 0,0 -0.2134,0 -0.1707,0.384 0.043,0.34133 0.256,0.768 0.256,0.42667 0.512,0.68267 0.512,0.512 0.4267,0.98133 -0.085,0.42667 -0.768,0.59734 z m 9.4293,1.87733 q -0.5973,-0.17067 -0.9813,-0.384 -0.384,-0.256 -1.024,-0.81067 -0.512,-0.68266 -0.8107,-1.28 -0.256,-0.59733 -0.3413,-1.36533 -0.085,-0.81067 -0.085,-2.048 0,-0.512 0.1706,-1.53601 0.2134,-1.024 0.4694,-2.13333 0.2986,-1.152 0.512,-2.048 0.256,-0.896 0.2986,-1.152 0.128,-0.55467 -0.4266,-0.64 -0.5547,-0.0853 -1.2374,-0.0427 -0.64,0 -0.8533,-0.128 -0.1707,-0.0427 -0.1707,-0.128 0,-0.128 0,-0.128 0,-0.17067 -0.043,-0.21333 0,-0.0853 -0.128,-0.29867 -0.085,-0.17067 0.085,-0.46933 0.2133,-0.34134 0.6827,-0.42667 0.384,-0.0853 1.024,-0.128 0.6826,-0.0853 1.3653,-0.29867 0.6827,-0.256 1.1093,-0.768 0.384,-0.93867 0.896,-2.09067 0.512,-1.152 0.9814,-2.048 0.512,-0.93867 0.6827,-1.152 0.7253,-0.384 1.0666,-0.29867 0.3414,0.0427 0.768,0.72534 0.2134,0.29866 0.2987,0.46933 0.128,0.17067 0.043,0.512 -0.085,0.34134 -0.4694,1.06667 -0.3413,0.72533 -1.0666,2.09067 -0.2134,0.42666 -0.384,0.768 -0.1707,0.29866 -0.1707,0.29866 0.1707,0.0427 0.512,0.0427 0.3413,0 0.8533,-0.0427 0.4694,-0.0853 1.1947,-0.128 0.7253,-0.0853 1.152,0 0.9813,0 1.4507,0.38401 0.4693,0.34133 0.512,1.19466 0.085,0.46934 -0.2134,0.55467 -0.256,0.0853 -1.408,0.0853 -0.384,0 -1.1946,0.0427 -0.8107,0.0427 -1.7067,0.0853 -0.8533,0.0427 -1.4933,0.128 -0.5974,0.0427 -0.5974,0.128 -0.128,0.0853 -0.4267,0.81067 -0.256,0.72533 -0.5546,1.664 -0.256,0.896 -0.4694,1.62134 -0.2986,1.45066 -0.4693,2.90133 -0.128,1.45067 -0.043,2.51734 0.085,1.06666 0.4694,1.49333 0.384,0.384 1.4933,0.17067 1.1094,-0.256 1.792,-0.81067 0.768,-0.64 1.2374,-0.64 0.512,0 0.5546,0.46933 0.085,0.42667 -0.4693,1.23734 -0.512,0.768 -1.28,1.36533 -0.768,0.55467 -1.6213,0.81067 -0.8107,0.21333 -1.5361,0 z m 9.6,-2.00533 q -0.1706,0 -0.4266,-0.0853 -0.2134,-0.128 -0.2134,-0.128 0,-0.17066 -0.128,-0.42667 -0.085,-0.256 -0.085,-0.42666 -0.2987,-0.17067 -0.3413,-0.34134 -0.043,-0.21333 0.128,-0.68266 0.256,-0.42667 0.6826,-1.36534 0.4267,-0.98133 0.896,-2.09067 0.4694,-1.152 0.896,-2.26133 0.4267,-1.10933 0.7254,-1.87734 0.2986,-0.81066 0.3413,-0.98133 0,-0.17067 0.128,-0.42667 0.128,-0.256 0.2987,-0.42666 0.3413,-0.29867 0.7253,-0.0427 0.384,0.21333 0.64,0.768 0.2987,0.512 0.2987,1.152 0,0.29867 -0.4267,1.536 -0.4267,1.19467 -1.152,2.85867 -0.6827,1.664 -1.536,3.37067 -0.64,1.23733 -0.8107,1.57867 -0.1706,0.29867 -0.64,0.29867 z m 6.272,-16.17068 q -0.512,0 -1.1093,-0.384 -0.5547,-0.42667 -0.9813,-1.024 -0.384,-0.64 -0.384,-1.28001 0,-0.21333 0.256,-0.59733 0.256,-0.384 0.512,-0.768 0.256,-0.384 0.256,-0.46933 0.3413,0 0.512,0.0427 0.2133,0 0.512,0.17067 0.4693,1.06667 1.152,1.74933 0.7253,0.68267 0.7253,1.15201 0,0.93866 -0.1707,1.19466 -0.1706,0.21334 -1.28,0.21334 z m 4.736,20.39468 q -1.408,-0.21333 -1.92,-1.06667 -0.4693,-0.81067 -0.2133,-2.51733 0.256,-0.81067 0.2987,-1.45067 0.085,-0.68267 0.384,-0.85334 0,0 0.043,-0.128 0.085,-0.128 -0.043,-0.256 0,-0.55466 0.384,-1.536 0.085,-0.256 0.2133,-0.59733 0.1707,-0.384 0.1707,-0.384 -0.2134,-0.34133 0,-0.55467 0.2133,-0.21333 0.4266,-0.384 0.256,-0.21333 0.043,-0.46933 -0.085,-0.17067 0.2133,-0.768 0.2987,-0.64 0.6827,-1.32267 0.384,-0.68267 0.512,-1.06667 0,-0.0853 0.2133,-0.59733 0.2134,-0.512 0.512,-1.19467 0.2987,-0.68267 0.5547,-1.23733 0.2987,-0.55467 0.384,-0.72534 0.4267,-0.21333 -0.3413,-0.29866 -0.768,-0.0853 -1.6214,-0.0427 -1.3226,-0.0427 -2.1333,-0.128 -0.768,-0.0853 -1.28,-0.384 -0.512,-0.59734 -0.384,-0.85334 0.1707,-0.29866 1.024,-0.34133 0.5547,-0.0427 0.8533,-0.0427 0.3414,0 0.8534,-0.0427 0.5546,-0.0853 1.7066,-0.21334 l 2.1761,-0.17066 0.128,-0.72534 q 0.3413,-0.55466 0.5546,-0.98133 0.256,-0.46933 0.4267,-0.93867 0.1707,-0.46933 0.256,-0.98133 0,0 0.384,-0.68267 0.384,-0.72533 0.4693,-1.49333 0.512,-0.85334 0.896,-1.536 0.384,-0.72534 0.4694,-0.89601 0.4693,-0.384 0.64,-0.384 0.2133,0 0.8533,0.42667 0.384,0.21333 0.6827,0.512 0.2986,0.29867 0.384,0.64 0.085,0.29867 -0.256,0.59734 -0.085,0.17066 -0.256,0.64 -0.1707,0.42666 -0.256,0.72533 -0.256,0.29867 -0.64,0.98133 -0.3414,0.64 -0.4694,1.32267 -0.3413,0.72534 -0.64,1.32267 -0.2986,0.55467 -0.4693,0.55467 0.085,0.42666 0.512,0.42666 0.4267,-0.0427 1.408,-0.0853 0.8107,-0.0853 1.1093,-0.17067 0.3414,-0.128 0.768,0.0853 0.2134,0.29866 0.3414,0.68266 0.128,0.384 0.043,0.72534 -0.043,0.29866 -0.3413,0.42666 -0.2133,0 -0.896,0.25601 -0.64,0.21333 -1.6213,0.256 l -2.2614,0.21333 -0.7253,1.45067 q -0.2987,0.55466 -0.512,1.024 -0.2133,0.42666 -0.2987,0.512 0,0.256 -0.2986,0.768 -0.256,0.512 -0.5547,1.10933 -0.256,0.72534 -0.5973,1.32267 -0.2987,0.59733 -0.2987,0.59733 -0.1707,0 -0.1707,0.256 0.2134,0.512 -0.128,0.768 -0.2133,0.128 -0.384,0.384 -0.128,0.21334 -0.128,0.21334 0.1707,0.17067 0.043,0.42667 -0.085,0.256 -0.256,0.55466 0,0.34134 -0.2134,0.98134 -0.1706,0.64 -0.384,1.19466 0.043,0.768 0.085,0.98134 0.043,0.21333 0.2133,0.17066 0.2133,0.0427 0.384,0 0.1707,-0.0427 0.3413,-0.0427 0.5974,-0.256 -0.64,2.98667 -0.6826,1.06666 -0.9386,1.536 -0.256,0.512 -0.4694,0.512 z m 9.3867,6.35734 q -1.024,0.29866 -2.2613,0.0853 -1.1947,-0.17067 -2.0907,-0.72533 -0.9387,-0.55467 -1.0667,-1.23734 -0.043,-0.256 0.1707,-0.55467 0.1707,-0.29866 0.4693,-0.42666 0.256,-0.0853 0.4694,0.17066 0.3413,0.21334 1.2373,0.51201 0.896,0.34133 2.0053,0.128 0.9814,-0.21334 1.92,-1.15201 0.9814,-0.93866 1.5787,-1.74933 0.3413,-0.512 1.152,-1.83467 0.8107,-1.32267 1.664,-2.90133 0.896,-1.62134 1.4933,-2.98667 0.128,-0.34134 0.2987,-0.81067 0.1707,-0.46933 0.4267,-0.768 0.256,-0.512 0.4266,-0.93867 0.2134,-0.46933 0.256,-0.64 0.043,-0.21333 0.384,-0.85333 0.3414,-0.64 0.64,-1.28 0.2134,-0.64 0.64,-1.87734 0.4267,-1.23733 0.8534,-2.00533 0.512,-0.98134 0.8106,-1.57867 0.3414,-0.64 0.7254,-0.768 v 0 0 q 0.384,-0.29867 0.512,-0.29867 0.1706,0 0.64,0.256 0.512,0.512 0.64,1.024 0.128,0.46934 -0.128,1.19467 -0.2134,0.68267 -0.8534,1.87733 -0.3413,1.02401 -0.768,1.87734 -0.384,0.81067 -0.5973,1.06667 -0.2133,0.512 -0.512,1.152 -0.256,0.59733 -0.4693,1.10933 -0.768,1.70667 -1.3227,2.77334 -0.5547,1.06667 -0.9813,1.96267 -0.4267,0.896 -0.896,2.09066 -0.9814,1.57867 -1.92,2.98667 -0.896,1.45067 -1.92,2.688 -0.4267,0.38401 -1.0667,0.89601 -0.64,0.512 -1.3227,0.93866 -0.64,0.42667 -1.2373,0.59734 z m 5.76,-10.24001 q -0.64,-0.0853 -1.28,-0.768 -0.5973,-0.68267 -0.9387,-1.45067 -0.3413,-0.768 -0.256,-1.10933 0,-0.21334 0,-0.34134 0,-0.128 0,-0.128 -0.256,0 -0.4693,-0.64 -0.1707,-0.64 -0.256,-1.664 -0.085,-1.024 -0.128,-2.176 0,-1.152 0.085,-2.176 0.1707,-0.72534 0.1707,-1.57867 0,-0.896 0.043,-1.408 -0.043,-0.68267 0.128,-0.896 0.1706,-0.256 0.3413,-0.384 v 0 0 q 1.1947,-0.512 1.5787,0.64 0.4266,1.10933 0.2133,4.18133 -0.085,1.70667 0,3.41334 0.085,1.70667 0.4693,2.98667 0.4267,1.28 1.152,1.74933 0.2987,0.17067 0.2987,0.46934 0,0.29866 -0.1707,0.64 -0.1706,0.29867 -0.4693,0.512 -0.256,0.17067 -0.512,0.128 z"
       id="text2"
       style="font-size:42.6667px;font-family:Caveat;-inkscape-font-specification:Caveat;white-space:pre;fill:#b52c2c;stroke-width:4"
       transform="matrix(0.26458333,0,0,0.26458333,-365.1104,-179.31525)"
       aria-label="Quantity" />
    <path
       style="font-size:42.6667px;font-family:Caveat;-inkscape-font-specification:Caveat;white-space:pre;fill:#b52c2c;stroke-width:4"
       d="m 1818.9772,958.36163 q -0.2987,-0.46933 -1.3654,-0.59733 -1.024,-0.128 -2.5173,-0.0427 -0.5973,0.0853 -1.152,-0.0853 -0.5547,-0.128 -0.896,-0.46934 -0.2987,-0.29867 -0.2133,-0.64 0.043,-0.512 0.8533,-0.81067 0.8533,-0.29866 2.688,-0.34133 l 2.2613,-0.0427 0.4267,-0.85333 q 0.1707,-0.46933 0.4267,-1.32267 0.256,-0.85333 0.5546,-1.83467 0.1707,-0.59733 0.512,-1.62133 0.3414,-1.024 0.7254,-2.176 0.384,-1.152 0.6826,-2.048 0.2987,-0.93867 0.384,-1.32267 0.1707,-0.384 0.4694,-1.28 0.2986,-0.93867 0.5546,-1.87734 0.2987,-0.98133 0.384,-1.408 1.1094,-3.37067 1.4507,-4.77867 0.3413,-1.45067 0.1707,-1.49333 -0.1707,0 -0.8534,0.0427 -0.64,0.0427 -1.4506,0.128 -0.768,0.0427 -1.408,0.128 -0.5974,0.0853 -0.7254,0.17067 -0.2133,0.29867 -0.7253,0.128 -0.512,-0.17067 -0.64,-0.59733 -0.043,-0.384 -0.043,-0.59734 0.043,-0.21333 0.256,-0.34133 0.2987,-0.256 1.152,-0.55467 0.8534,-0.34133 1.92,-0.59733 1.1094,-0.256 2.0907,-0.384 0.7253,-0.0853 1.4507,-0.29867 0.7253,-0.256 1.152,-0.59733 0.384,-0.128 0.7253,-0.21334 0.384,-0.0853 0.768,-0.0427 0.3413,0.21333 1.152,0.21333 0.8533,0 1.792,-0.0427 2.3893,-0.21333 3.2,-0.128 0.8533,0.0853 1.152,0.68267 0.2133,0.81067 0.085,1.28 -0.128,0.42667 -0.8533,0.384 -0.384,0.0853 -1.408,0.17067 -0.9813,0.0427 -2.0907,0.0853 -3.0293,0.256 -3.2426,0.59734 -0.1707,0.17066 -0.2987,0.34133 -0.085,0.17067 -0.256,0.384 0.043,0.17067 -0.2133,1.10934 -0.2134,0.896 -0.5547,1.83466 -0.1707,0.55467 -0.512,1.57867 -0.3413,1.024 -0.7253,2.13334 -0.3414,1.06666 -0.64,1.96266 -0.2987,0.85334 -0.4267,1.152 -0.1707,0.38401 -0.2987,0.85334 -0.085,0.42667 -0.128,0.64 -0.5973,2.09067 -1.0666,3.54134 -0.4267,1.45066 -0.8107,2.56 -0.3413,1.06666 -0.64,2.09067 -0.2987,0.98133 -0.64,2.176 0,0 0.64,-0.0427 0.6827,-0.0853 1.792,-0.17067 2.0053,-0.21333 2.8587,-0.256 0.896,-0.0427 1.1946,0.128 0.2987,0.128 0.4267,0.512 0.8533,1.152 0.2133,1.57867 -0.64,0.42667 -3.0293,0.384 -2.2187,0.0853 -3.4133,0.128 -1.152,0.0853 -1.6214,0.21334 -0.4266,0.128 -0.512,0.42666 0,0.34134 -0.3413,0.34134 -0.3413,0 -0.8533,-0.17067 z m 16.9386,-1.62134 q -0.4693,-0.0853 -0.9813,-0.46933 -0.4693,-0.42667 -0.8533,-0.93867 -0.3414,-0.55466 -0.4694,-0.98133 0,-0.0853 -0.128,-0.21333 -0.085,-0.128 -0.085,-0.128 -0.1707,-0.128 -0.2133,-1.10934 0,-1.024 0.128,-2.26133 0.128,-1.23734 0.2986,-1.96267 0.2134,-0.68267 0.64,-1.83467 0.4267,-1.19467 0.7254,-2.13333 l 1.152,-2.47467 -1.7067,-0.46934 q -0.2987,-0.0853 -0.512,-0.34133 -0.1707,-0.256 -0.1707,-0.42667 0,-0.34133 0.384,-0.81066 0.384,-0.512 0.5547,-0.512 0.2133,0.0427 0.768,0.0427 0.5973,0 1.152,-0.0427 0.5547,-0.0427 0.6827,-0.0853 0.1706,-0.0853 0.3413,-0.21333 0.1707,-0.17067 0.256,-0.46934 0.2133,-0.46933 0.384,-0.85333 0.1707,-0.42667 0.4693,-0.93867 0.2987,-0.55466 0.4694,-0.93866 0.2133,-0.384 0.64,-1.06667 0.2133,-0.29867 0.4693,-0.72534 0.256,-0.42666 0.64,-0.72533 0.384,-0.34133 0.768,-0.29867 0.4267,0 1.0667,0.55467 0.3413,0.42667 0.384,0.64 0.043,0.21334 -0.3414,0.81067 -0.3413,0.72533 -0.8106,1.45067 -0.4267,0.72533 -0.8107,1.45066 -0.6827,0.93867 -0.256,1.06667 0.4267,0.128 2.3893,-0.17066 1.2374,-0.21334 1.792,0.128 0.5547,0.29866 0.64,1.024 0.128,1.024 -0.2133,1.23733 -0.3413,0.21333 -1.9627,0.21333 -1.024,0.17067 -1.7493,0.21334 -0.7253,0 -1.0667,0 -0.5546,0.0427 -0.7253,0.0427 -0.1707,0 -0.512,0.0853 -0.3413,0.0853 -0.512,0.29866 -0.128,0.17067 -0.2987,0.512 -0.1706,0.17067 -0.512,0.89601 -0.3413,0.72533 -0.8533,1.57866 -0.5973,1.792 -1.024,3.58401 -0.4267,1.74933 -0.6827,3.41333 -0.1706,1.06667 0.043,1.49334 0.2133,0.384 1.1093,0.46933 0.4694,0.0427 1.4934,0 1.0666,-0.0853 1.664,-0.256 0.4693,-0.21333 0.9813,-0.42667 0.512,-0.256 0.9387,-0.512 0.384,-0.21333 0.768,-0.42666 0.384,-0.25601 0.384,-0.25601 0.2133,-0.34133 0.4693,-0.21333 0.256,0.128 0.4267,0.64 0,0.512 -0.2134,1.06667 -0.2133,0.55467 -1.5786,1.32267 -1.92,1.19466 -3.5414,1.45066 -1.5786,0.21334 -2.688,0 z m 18.2614,-1.19466 q -0.896,0.768 -2.0907,0.896 -1.152,0.128 -2.2613,-0.34134 -1.1094,-0.512 -1.8347,-1.536 -0.7254,-0.93866 -0.9387,-2.13333 -0.2133,-1.23734 -0.043,-3.2 0.128,-1.66401 1.0667,-3.32801 0.9387,-1.70666 2.2614,-3.02933 1.3653,-1.32267 2.688,-1.83467 0.64,-0.42667 1.0666,-0.384 0.4694,0 1.408,0.0853 0.9814,0.128 1.4507,0.384 0.512,0.256 0.8107,0.68267 0.64,0.64 0.8533,1.28 0.2133,0.59734 0.2133,1.19467 -0.1706,0.93867 -1.28,2.304 -1.0666,1.32267 -2.816,2.176 -0.9386,0.29867 -2.048,0.256 -1.1093,-0.0427 -1.8346,-0.55466 -0.8107,-0.34134 -1.0667,0.128 -0.256,0.42666 -0.4693,2.13333 -0.1707,1.62133 0.256,2.38934 0.4266,0.72533 1.152,0.85333 0.8533,0.17067 1.3226,0.256 0.512,0.0427 1.2374,-0.384 0.6826,-0.42667 0.8533,-0.46933 0.1707,-0.0853 0.256,-0.17067 0.128,-0.128 0.5547,-0.55467 0.2986,-0.29867 0.4693,-0.42667 0.1707,-0.17066 0.384,-0.17066 0.2133,0 0.384,0.21333 0.1707,0.17067 0.3413,0.256 0.4267,0 0.1707,0.512 -0.2133,0.512 -0.896,1.23734 -0.6827,0.68266 -1.6213,1.28 z m -0.043,-9.04534 q 0.4693,-0.21334 0.9813,-0.59734 0.512,-0.42666 0.8534,-0.896 0.384,-0.512 0.384,-0.85333 0,-0.59734 -0.5547,-0.98134 -0.5547,-0.42666 -1.664,-0.128 -0.4693,0.128 -1.0667,0.64001 -0.5973,0.46933 -1.152,1.06666 -0.512,0.59734 -0.8533,1.06667 -0.2987,0.46933 -0.2133,0.55467 0.128,0.21333 0.7253,0.34133 0.5973,0.0853 1.3227,0.0427 0.768,-0.0427 1.2373,-0.256 z m 7.5947,8.96 q -0.128,-0.17066 -0.256,-0.42666 -0.085,-0.256 -0.085,-0.42667 0,-0.0853 -0.043,-0.21333 0,-0.128 -0.1707,-0.128 -0.128,-0.128 0.1707,-0.98134 0.3413,-0.896 0.8533,-2.048 0.5547,-1.152 1.1094,-2.21867 0.5973,-1.10933 0.9813,-1.74933 0.2133,-0.128 0.256,-0.34134 0.085,-0.256 0,-0.256 0,0 0.2133,-0.384 0.256,-0.42666 0.384,-0.55466 0.3414,-0.59734 0.512,-1.19467 0.1707,-0.64 0.085,-1.06667 -0.1707,-0.21333 -0.384,-0.128 -0.2134,0.0853 -0.2134,0.0853 -0.1706,0.0427 -0.512,0.17067 -0.2986,0.0853 -0.5546,0.256 -0.9814,0.68267 -1.3227,0.64 -0.3413,-0.0853 -0.768,-1.10933 -0.1707,-0.46934 -0.128,-0.68267 0.043,-0.21333 0.3413,-0.46933 0.3414,-0.29867 0.64,-0.384 0.2987,-0.128 0.4694,-0.256 0.4693,-0.29867 0.768,-0.42667 0.3413,-0.128 0.512,-0.17067 1.1093,-0.34133 1.8773,-0.128 0.768,0.21334 1.152,1.10934 0.5973,0.72533 0.5973,1.664 0,0.896 -0.5973,2.09067 l -0.4267,0.64 q -0.2133,0.42666 -0.085,0.42666 0.1707,0 0.384,-0.29866 0.128,-0.17067 0.512,-0.512 0.384,-0.34134 0.512,-0.34134 0,0 0.085,-0.0427 0.128,-0.0427 0.128,-0.34134 0.128,-0.128 0.256,-0.256 0.1707,-0.128 0.1707,-0.128 0.1707,0 0.64,-0.384 0.512,-0.42666 1.1947,-0.98133 0.4693,-0.34134 0.8533,-0.34134 0.9813,-0.29866 1.5787,0.64001 0.64,0.93866 0.64,2.432 l -0.896,2.304 1.536,-1.87734 q 0.256,-0.34133 0.512,-0.59733 0.2986,-0.256 0.512,-0.42667 0.085,-0.29866 0.256,-0.34133 0.1706,-0.0427 0.1706,-0.0427 0,0 0.085,0 0.085,-0.0427 0.085,-0.17066 0.2133,-0.17067 0.4693,-0.29867 0.256,-0.17067 0.3414,-0.34133 0.7253,-0.29867 1.3226,-0.0853 0.5974,0.17067 1.024,1.06667 0.2987,0.512 0.3414,0.896 0.043,0.384 0.043,1.152 -0.085,0.64 -0.1706,1.024 -0.043,0.34134 -0.085,0.72534 -0.043,0.384 -0.128,1.06666 -0.1706,0.34134 -0.2133,0.72534 0,0.384 0,0.72533 0,0.55467 0.043,0.768 0.043,0.17067 0.3413,0.17067 0.5973,-0.128 1.6213,-0.59734 1.0667,-0.512 1.5787,-0.98133 0.64,-0.59733 1.1093,-0.59733 0.512,-0.0427 0.64,0.46933 0.085,0.17067 -0.2986,0.768 -0.3414,0.59733 -0.8107,1.152 -0.4267,0.55467 -0.64,0.55467 -0.128,0 -0.2987,0.256 -0.1706,0.21333 -0.384,0.34133 -0.2986,0.29867 -0.5973,0.55467 -0.256,0.256 -0.5973,0.256 -0.1707,0 -0.4267,0.128 -0.2133,0.0853 -0.512,0.0853 -0.4267,0.128 -1.3227,-0.128 -0.8533,-0.256 -1.1093,-1.19466 -0.1707,-0.46934 -0.2987,-1.49334 -0.128,-1.06667 0.043,-2.13333 0.1707,-0.768 0.2133,-1.408 0.043,-0.64 0.1707,-0.89601 0,-0.128 0,-0.59733 0,-0.512 -0.128,-0.512 -0.1707,0 -0.8107,0.64 -0.5973,0.59733 -1.4506,1.536 -0.8107,0.93867 -1.6214,1.96267 -0.8106,1.024 -1.3226,1.83467 -0.384,0.46933 -0.6827,1.152 -0.2987,0.68267 -0.4267,0.768 -0.2986,0.34133 -0.7253,0.0853 -0.384,-0.256 -0.7253,-0.81066 -0.128,-0.256 -0.1707,-0.42667 -0.043,-0.21333 0,-0.55467 0.085,-0.384 0.2987,-1.10933 0.256,-0.72534 0.6826,-2.048 0.4694,-1.45067 0.8107,-2.60267 0.384,-1.19467 0.384,-1.19467 0,-0.17067 -0.64,0.34133 -0.64,0.46934 -1.4933,1.19467 -0.384,0.46933 -1.28,1.408 -0.896,0.93867 -1.9627,2.13334 -1.0667,1.19466 -2.048,2.51733 -1.2373,1.74934 -1.7493,2.13334 -0.4694,0.384 -0.9387,-0.21334 z"
       id="text2-9"
       transform="matrix(0.26458333,0,0,0.26458333,-462.4425,-178.25691)"
       aria-label="Item" />
    <rect
       style="fill:#cc3333;fill-opacity:1;stroke:none;stroke-width:0.643283;stroke-dasharray:none;stroke-opacity:1"
       id="rect4"
       width="0.52916664"
       height="26.318478"
       x="79.375"
       y="29.104166" />
    <rect
       style="fill:#cc3333;fill-opacity:1;stroke:none;stroke-width:0.643283;stroke-dasharray:none;stroke-opacity:1"
       id="rect4-9"
       width="0.52916664"
       height="26.318478"
       x="45.640625"
       y="29.104166" />
    <rect
       style="fill:#cc3333;fill-opacity:1;stroke:none;stroke-width:0.643283;stroke-dasharray:none;stroke-opacity:1"
       id="rect4-1"
       width="0.52916664"
       height="26.318478"
       x="113.10938"
       y="29.104166" />
    <path
       d="m 24.869424,25.698459 q -0.169334,-0.06773 -0.395112,-0.191911 -0.225778,-0.112889 -0.428978,-0.3048 -0.2032,-0.191911 -0.316089,-0.462845 -0.112889,-0.327378 -0.158045,-0.643467 -0.03387,-0.31609 -0.02258,-0.733779 0,-0.587023 0.07902,-1.016001 0.09031,-0.440267 0.270933,-0.891823 0.02258,-0.03387 0.07902,-0.191911 0.06773,-0.169334 0.146756,-0.361245 0.09031,-0.191912 0.135467,-0.293512 0.09031,-0.191911 0.270934,-0.508 0.191911,-0.327378 0.4064,-0.632179 0.327378,-0.485422 0.553156,-0.790223 0.225778,-0.316089 0.428978,-0.530578 0.214489,-0.214489 0.462845,-0.417689 0.259645,-0.2032 0.643468,-0.462845 0.248355,-0.180623 0.632178,-0.225778 0.395111,-0.04516 0.767645,0.124178 0.372534,0.158044 0.553156,0.6096 0.124178,0.237067 0.112889,0.598312 -0.01129,0.349956 -0.135467,0.756356 -0.124177,0.395112 -0.316089,0.745068 -0.191911,0.349956 -0.428978,0.564445 -0.146756,0.135467 -0.395111,0.04516 -0.237067,-0.09031 -0.395112,-0.237066 -0.1016,-0.191912 -0.112889,-0.225778 0,-0.03387 0.04516,-0.04516 0.06773,-0.07902 0.180622,-0.270934 0.112889,-0.191911 0.225778,-0.4064 0.112889,-0.225778 0.158045,-0.361245 0.09031,-0.474134 0.124178,-0.620889 0.03387,-0.158045 -0.06773,-0.259645 -0.04515,-0.04516 -0.135467,-0.03387 -0.07902,0.01129 -0.270933,0.112889 -0.259645,0.112889 -0.62089,0.462845 -0.349956,0.338667 -0.699912,0.812801 -0.451556,0.598312 -0.756356,1.061157 -0.3048,0.462844 -0.462845,0.948267 -0.02258,0.04516 -0.07902,0.169334 -0.04516,0.124178 -0.04516,0.124178 0.01129,0.04516 -0.03387,0.225778 -0.04516,0.169333 -0.101601,0.293511 -0.124177,0.519289 -0.146755,1.004712 -0.02258,0.474134 0.05644,0.835379 0.09031,0.349956 0.259645,0.519289 0.146756,0.1016 0.372534,0.06773 0.225778,-0.03387 0.519289,-0.158045 0.293511,-0.124178 0.632179,-0.270934 0.270933,-0.112889 0.496711,-0.248355 0.225778,-0.135467 0.338667,-0.237067 0.09031,-0.06773 0.225778,-0.135467 0.146756,-0.07902 0.248356,-0.07902 0.158045,-0.05645 0.237067,0.09031 0.07902,0.146755 0.07902,0.372533 0,0.158045 -0.225778,0.383823 -0.225778,0.225778 -0.496711,0.383823 -0.09031,0.09031 -0.248356,0.169333 -0.146756,0.06773 -0.304801,0.124178 -0.237066,0.180623 -0.587022,0.349956 -0.349956,0.169334 -0.711201,0.259645 -0.349956,0.09031 -0.643467,0.03387 z m 4.594571,-0.462844 q -0.05644,0 -0.191911,-0.05645 -0.135467,-0.04516 -0.259645,-0.124178 -0.112889,-0.07902 -0.112889,-0.169333 0,0 -0.01129,-0.06773 0,-0.07902 -0.04516,-0.158044 0,-0.09031 0,-0.203201 0.01129,-0.124177 0.05644,-0.248355 0,-0.124178 0.03387,-0.270934 0.03387,-0.158045 0.07902,-0.237067 0,-0.124178 0.05645,-0.316089 0.06773,-0.2032 0.112889,-0.372534 0.124178,-0.372534 0.180622,-0.541867 0.06773,-0.169334 0.09031,-0.248356 0.02258,-0.09031 0.02258,-0.180622 0.03387,-0.09031 0.1016,-0.327378 0.06773,-0.237067 0.135467,-0.485423 0.07902,-0.259645 0.1016,-0.372534 0.04516,-0.04516 0.04516,-0.07902 0.01129,-0.04516 0.01129,-0.09031 0,0 0.07902,-0.259645 0.07902,-0.259645 0.2032,-0.598312 0.203201,-0.598311 0.270934,-0.869245 0.07902,-0.270934 0.06773,-0.383823 0,-0.112889 -0.05644,-0.225778 -0.07902,-0.146755 0,-0.225778 0.04516,-0.04516 0.07902,-0.1016 0.03387,-0.06773 0.03387,-0.06773 0,-0.02258 0.158044,-0.09031 0.169334,-0.07902 0.406401,-0.169334 0.237067,-0.1016 0.474134,-0.180622 0.237067,-0.09031 0.383822,-0.135467 0.03387,0 0.158045,0 0.135467,0 0.282222,0 0.158045,0 0.248356,0 0.293512,0.04515 0.598312,0.169333 0.316089,0.124178 0.530578,0.349956 0.135467,0.124178 0.293512,0.349956 0.169333,0.225778 0.338667,0.609601 0,0.04515 0.02258,0.191911 0.03387,0.135467 0.03387,0.270934 0,0.338667 -0.169333,0.767645 -0.158045,0.428978 -0.474134,0.869245 -0.316089,0.428979 -0.767645,0.801512 -0.474134,0.383823 -0.982135,0.51929 -0.508,0.135466 -0.903112,0.05644 -0.225778,-0.09031 -0.3048,-0.248356 -0.07902,-0.169333 -0.06773,-0.316089 0.01129,-0.146756 0.04516,-0.180622 0.09031,-0.02258 0.270934,-0.01129 0.180622,0 0.575734,-0.146756 0.124178,-0.04516 0.259644,-0.1016 0.135467,-0.06773 0.21449,-0.112889 0.225778,-0.146756 0.451556,-0.372534 0.237066,-0.225778 0.485422,-0.620889 0.1016,-0.158045 0.146756,-0.349956 0.04516,-0.191911 0.05644,-0.383823 0.02258,-0.2032 0.02258,-0.349956 0.09031,-0.293511 -0.112889,-0.485422 -0.191911,-0.203201 -0.620889,-0.248356 -0.135467,-0.03387 -0.338667,-0.01129 -0.191912,0.02258 -0.361245,0.07902 -0.169334,0.04516 -0.259645,0.1016 -0.04515,0 -0.05644,0.06773 -0.01129,0.06773 -0.05645,0.158044 0,0.07902 -0.06773,0.338667 -0.06773,0.248356 -0.158045,0.462845 -0.07902,0.248356 -0.191911,0.553156 -0.112889,0.293512 -0.158045,0.462845 -0.04515,0.180623 -0.112889,0.349956 -0.05644,0.169334 -0.05644,0.169334 0,0.04515 -0.06773,0.191911 -0.05644,0.146756 -0.1016,0.316089 -0.04515,0.214489 -0.124178,0.485423 -0.06773,0.270934 -0.158044,0.485423 -0.124178,0.417689 -0.214489,0.835378 -0.09031,0.406401 -0.01129,0.530579 0.338667,0.01129 0.349956,0.146755 0.02258,0.124178 -0.349956,0.587023 -0.112889,0.282223 -0.225778,0.383823 -0.112889,0.112889 -0.225778,0.124178 -0.1016,0.01129 -0.191912,0.01129 z"
       id="text4"
       style="font-weight:bold;font-size:11.2889px;font-family:Caveat;-inkscape-font-specification:'Caveat Bold';fill:#cc3333;stroke-width:0.529167"
       aria-label="CP" />
    <path
       d="m 59.767439,25.675881 q -0.2032,-0.05645 -0.327378,-0.1016 -0.124178,-0.03387 -0.124178,-0.03387 0.02258,-0.05644 -0.02258,-0.1016 -0.03387,-0.04516 -0.158045,-0.05644 -0.169333,-0.112889 -0.349956,-0.31609 -0.180622,-0.2032 -0.316089,-0.417689 -0.135467,-0.214489 -0.180622,-0.316089 -0.07902,-0.169334 0.01129,-0.2032 0.09031,-0.04516 0.214489,-0.1016 0.124178,-0.09031 0.259644,-0.135467 0.146756,-0.04516 0.237067,0.146755 0.146756,0.259645 0.451556,0.440268 0.31609,0.180622 0.711201,0.214489 0.406401,0.03387 0.812801,-0.135467 0.270934,-0.124178 0.293511,-0.338667 0.02258,-0.225778 -0.169333,-0.51929 -0.03387,-0.09031 -0.1016,-0.146755 -0.05644,-0.05645 -0.180623,-0.146756 -0.112889,-0.09031 -0.327378,-0.293511 -0.169333,-0.07902 -0.316089,-0.146756 -0.135467,-0.06773 -0.293511,-0.146756 -0.180623,-0.09031 -0.406401,-0.248356 -0.225778,-0.169333 -0.417689,-0.361244 -0.191911,-0.203201 -0.293512,-0.383823 -0.180622,-0.169334 -0.225778,-0.462845 -0.04516,-0.3048 0.01129,-0.643467 0.06773,-0.338667 0.214489,-0.609601 0.06773,-0.158045 0.248356,-0.4064 0.180623,-0.259645 0.406401,-0.530579 0.225778,-0.270933 0.428978,-0.485422 0.214489,-0.225778 0.338667,-0.304801 0.09031,-0.09031 0.191911,-0.180622 0.1016,-0.1016 0.1016,-0.1016 0.01129,-0.05645 0.03387,-0.05645 0.03387,0 0.03387,0 0.05644,-0.03387 0.248356,-0.112889 0.191911,-0.07902 0.417689,-0.293511 0.756356,-0.361245 1.286935,-0.485423 0.530578,-0.135467 0.835378,-0.135467 v 0 0 q 0.282223,0.01129 0.553156,0.158045 0.270934,0.135467 0.462845,0.349956 0.2032,0.214489 0.237067,0.485423 0.07902,0.270933 -0.07902,0.654756 -0.146756,0.372534 -0.41769,0.711201 -0.259644,0.327378 -0.541867,0.485422 -0.316089,0.135467 -0.541867,0.03387 -0.214489,-0.1016 -0.2032,-0.316089 0,-0.09031 0.05644,-0.214489 0.06773,-0.124178 0.349956,-0.440267 0.361245,-0.530579 0.383823,-0.756357 0.02258,-0.225778 -0.2032,-0.259645 -0.06773,-0.02258 -0.259645,0.01129 -0.191911,0.03387 -0.417689,0.09031 -0.214489,0.04515 -0.383823,0.1016 -0.158045,0.05644 -0.158045,0.07902 0,0 0,0.03387 0,0.03387 -0.04515,0.02258 -0.02258,0 -0.158045,0.07902 -0.124178,0.06773 -0.3048,0.180622 -0.180623,0.112889 -0.361245,0.237067 -0.169333,0.112889 -0.293511,0.2032 -0.124178,0.09031 -0.135467,0.112889 -0.02258,0.124178 -0.259645,0.225778 -0.225778,0.135467 -0.395111,0.383823 -0.169334,0.248356 -0.395112,0.632178 -0.191911,0.259645 -0.270933,0.564445 -0.07902,0.293512 0,0.474134 0.05644,0.180623 0.3048,0.361245 0.259645,0.169334 0.699912,0.428978 0.383822,0.214489 0.722489,0.451556 0.338667,0.237067 0.575734,0.462845 0.237067,0.214489 0.3048,0.361245 0.135467,0.191911 0.158045,0.440267 0.03387,0.248356 0,0.485423 -0.02258,0.225778 -0.06773,0.372534 -0.07902,0.180622 -0.248356,0.383822 -0.158045,0.2032 -0.293512,0.191911 -0.124177,0.03387 -0.191911,0.07902 -0.05644,0.04516 -0.135467,0.07902 -0.07902,0.04516 -0.372533,0.1016 -0.293512,0.06773 -0.643468,0.1016 -0.349956,0.04516 -0.6096,0.03387 z m 4.40268,-0.451556 q -0.05644,0 -0.191911,-0.05645 -0.135467,-0.04516 -0.259645,-0.124177 -0.112889,-0.07902 -0.112889,-0.169334 0,0 -0.01129,-0.06773 0,-0.07902 -0.04516,-0.158045 0,-0.09031 0,-0.2032 0.01129,-0.124178 0.05644,-0.248356 0,-0.124178 0.03387,-0.270934 0.03387,-0.158044 0.07902,-0.237067 0,-0.124177 0.05644,-0.316089 0.06773,-0.2032 0.112889,-0.372533 0.124178,-0.372534 0.180622,-0.541868 0.06773,-0.169333 0.09031,-0.248355 0.02258,-0.09031 0.02258,-0.180623 0.03387,-0.09031 0.1016,-0.327378 0.06773,-0.237067 0.135467,-0.485423 0.07902,-0.259644 0.1016,-0.372533 0.04516,-0.04516 0.04516,-0.07902 0.01129,-0.04515 0.01129,-0.09031 0,0 0.07902,-0.259645 0.07902,-0.259644 0.2032,-0.598311 0.2032,-0.598312 0.270934,-0.869246 0.07902,-0.270933 0.06773,-0.383822 0,-0.112889 -0.05644,-0.225778 -0.07902,-0.146756 0,-0.225778 0.04516,-0.04516 0.07902,-0.1016 0.03387,-0.06773 0.03387,-0.06773 0,-0.02258 0.158044,-0.09031 0.169334,-0.07902 0.406401,-0.169334 0.237067,-0.1016 0.474134,-0.180622 0.237066,-0.09031 0.383822,-0.135467 0.03387,0 0.158045,0 0.135467,0 0.282222,0 0.158045,0 0.248356,0 0.293511,0.04516 0.598312,0.169334 0.316089,0.124178 0.530578,0.349956 0.135467,0.124178 0.293512,0.349956 0.169333,0.225778 0.338667,0.6096 0,0.04516 0.02258,0.191912 0.03387,0.135466 0.03387,0.270933 0,0.338667 -0.169333,0.767645 -0.158045,0.428979 -0.474134,0.869246 -0.31609,0.428978 -0.767646,0.801512 -0.474133,0.383822 -0.982134,0.519289 -0.508,0.135467 -0.903112,0.05645 -0.225778,-0.09031 -0.3048,-0.248356 -0.07902,-0.169334 -0.06773,-0.316089 0.01129,-0.146756 0.04516,-0.180623 0.09031,-0.02258 0.270934,-0.01129 0.180622,0 0.575734,-0.146755 0.124177,-0.04516 0.259644,-0.101601 0.135467,-0.06773 0.214489,-0.112889 0.225778,-0.146755 0.451556,-0.372533 0.237067,-0.225778 0.485423,-0.62089 0.1016,-0.158044 0.146756,-0.349956 0.04516,-0.191911 0.05644,-0.383822 0.02258,-0.203201 0.02258,-0.349956 0.09031,-0.293512 -0.112889,-0.485423 -0.191911,-0.2032 -0.620889,-0.248356 -0.135467,-0.03387 -0.338667,-0.01129 -0.191912,0.02258 -0.361245,0.07902 -0.169334,0.04515 -0.259645,0.1016 -0.04516,0 -0.05644,0.06773 -0.01129,0.06773 -0.05644,0.158045 0,0.07902 -0.06773,0.338667 -0.06773,0.248356 -0.158045,0.462845 -0.07902,0.248355 -0.191911,0.553156 -0.112889,0.293511 -0.158045,0.462845 -0.04515,0.180622 -0.112889,0.349956 -0.05644,0.169333 -0.05644,0.169333 0,0.04516 -0.06773,0.191911 -0.05644,0.146756 -0.1016,0.31609 -0.04516,0.214489 -0.124178,0.485422 -0.06773,0.270934 -0.158044,0.485423 -0.124178,0.417689 -0.21449,0.835379 -0.09031,0.4064 -0.01129,0.530578 0.338667,0.01129 0.349955,0.146756 0.02258,0.124178 -0.349955,0.587023 -0.112889,0.282222 -0.225778,0.383822 -0.112889,0.112889 -0.225778,0.124178 -0.101601,0.01129 -0.191912,0.01129 z"
       id="text4-1"
       style="font-weight:bold;font-size:11.2889px;font-family:Caveat;-inkscape-font-specification:'Caveat Bold';fill:#cc3333;stroke-width:0.529167"
       aria-label="SP" />
    <path
       d="m 91.429899,25.461392 q -0.3048,-0.225778 -0.474134,-0.643467 -0.158044,-0.428979 -0.146755,-0.790223 -0.01129,-0.699912 0.112889,-1.44498 0.135466,-0.745067 0.349956,-1.388534 0.146755,-0.406401 0.316089,-0.82409 0.169333,-0.41769 0.349956,-0.790223 0.180622,-0.383823 0.349956,-0.643468 0.349955,-0.598311 0.7112,-0.959556 0.372534,-0.361245 0.564445,-0.474134 0.31609,-0.158045 0.756357,-0.237067 0.440267,-0.09031 0.857956,0 0.293511,0.07902 0.575734,0.225778 0.293511,0.146756 0.508001,0.361245 0.124177,0.112889 0.191911,0.237067 0.06773,0.124178 0.06773,0.259645 0,0.169333 -0.158044,0.327378 -0.158045,0.158044 -0.349956,0.214489 -0.191912,0.05644 -0.293512,-0.06773 -0.146755,-0.225778 -0.282222,-0.338667 -0.135467,-0.124177 -0.282223,-0.180622 -0.124178,-0.07902 -0.338667,-0.07902 -0.2032,0 -0.440267,0.07902 -0.237067,0.06773 -0.451556,0.248356 -0.07902,0.06773 -0.214489,0.191911 -0.124178,0.124178 -0.270934,0.3048 -0.135466,0.169334 -0.248355,0.372534 -0.31609,0.51929 -0.541868,1.061157 -0.214489,0.530578 -0.383822,1.162757 -0.07902,0.259644 -0.169334,0.643467 -0.09031,0.372534 -0.169333,0.745067 -0.06773,0.372534 -0.09031,0.654756 -0.03387,0.395112 0.02258,0.62089 0.05644,0.225778 0.237067,0.3048 0.180623,0.06773 0.508001,-0.01129 0.293511,-0.06773 0.587023,-0.225778 0.3048,-0.169333 0.587022,-0.417689 0.282223,-0.259645 0.508001,-0.609601 0.2032,-0.383822 0.327378,-0.699911 0.135467,-0.31609 0.135467,-0.496712 0.01129,-0.191911 -0.191911,-0.180622 -0.462845,0.01129 -0.745068,-0.03387 -0.270933,-0.04516 -0.372534,-0.225778 -0.146755,-0.03387 -0.158044,-0.248356 0,-0.214489 0.214489,-0.349956 0.191911,-0.1016 0.530578,-0.124178 0.338667,-0.02258 0.688623,0.02258 0.361245,0.03387 0.575734,0.158045 0.248356,0.124178 0.338667,0.372533 0.1016,0.237067 0.1016,0.508001 0.01129,0.270934 -0.03387,0.508 -0.1016,0.395112 -0.282222,0.767646 -0.169334,0.372533 -0.462845,0.756356 -0.169333,0.237067 -0.462845,0.496712 -0.293511,0.259644 -0.620889,0.462845 -0.31609,0.214489 -0.598312,0.338667 -0.451556,0.2032 -0.948268,0.293511 -0.485422,0.09031 -0.891823,-0.214489 z m 5.599289,-0.237067 q -0.05645,0 -0.191912,-0.05645 -0.135466,-0.04516 -0.259644,-0.124177 -0.112889,-0.07902 -0.112889,-0.169334 0,0 -0.01129,-0.06773 0,-0.07902 -0.04516,-0.158045 0,-0.09031 0,-0.2032 0.01129,-0.124178 0.05644,-0.248356 0,-0.124178 0.03387,-0.270934 0.03387,-0.158044 0.07902,-0.237067 0,-0.124177 0.05644,-0.316089 0.06773,-0.2032 0.112889,-0.372533 0.124178,-0.372534 0.180623,-0.541868 0.06773,-0.169333 0.09031,-0.248355 0.02258,-0.09031 0.02258,-0.180623 0.03387,-0.09031 0.1016,-0.327378 0.06773,-0.237067 0.135466,-0.485423 0.07902,-0.259644 0.101601,-0.372533 0.04516,-0.04516 0.04516,-0.07902 0.01129,-0.04515 0.01129,-0.09031 0,0 0.07902,-0.259645 0.07902,-0.259644 0.203201,-0.598311 0.2032,-0.598312 0.270933,-0.869246 0.07902,-0.270933 0.06773,-0.383822 0,-0.112889 -0.05644,-0.225778 -0.07902,-0.146756 0,-0.225778 0.04516,-0.04516 0.07902,-0.1016 0.03387,-0.06773 0.03387,-0.06773 0,-0.02258 0.158045,-0.09031 0.169333,-0.07902 0.4064,-0.169334 0.237067,-0.1016 0.474134,-0.180622 0.237067,-0.09031 0.383823,-0.135467 0.03387,0 0.158044,0 0.135467,0 0.282223,0 0.158049,0 0.248359,0 0.29351,0.04516 0.59831,0.169334 0.31609,0.124178 0.53058,0.349956 0.13546,0.124178 0.29351,0.349956 0.16933,0.225778 0.33866,0.6096 0,0.04516 0.0226,0.191912 0.0339,0.135466 0.0339,0.270933 0,0.338667 -0.16933,0.767645 -0.15805,0.428979 -0.47414,0.869246 -0.31609,0.428978 -0.76764,0.801512 -0.47414,0.383822 -0.982137,0.519289 -0.508001,0.135467 -0.903112,0.05645 -0.225778,-0.09031 -0.304801,-0.248356 -0.07902,-0.169334 -0.06773,-0.316089 0.01129,-0.146756 0.04515,-0.180623 0.09031,-0.02258 0.270934,-0.01129 0.180622,0 0.575734,-0.146755 0.124178,-0.04516 0.259645,-0.101601 0.135466,-0.06773 0.214489,-0.112889 0.225778,-0.146755 0.451556,-0.372533 0.23707,-0.225778 0.48542,-0.62089 0.1016,-0.158044 0.14676,-0.349956 0.0452,-0.191911 0.0564,-0.383822 0.0226,-0.203201 0.0226,-0.349956 0.0903,-0.293512 -0.11289,-0.485423 -0.19191,-0.2032 -0.62089,-0.248356 -0.13546,-0.03387 -0.338665,-0.01129 -0.191911,0.02258 -0.361245,0.07902 -0.169333,0.04515 -0.259645,0.1016 -0.04515,0 -0.05644,0.06773 -0.01129,0.06773 -0.05644,0.158045 0,0.07902 -0.06773,0.338667 -0.06773,0.248356 -0.158045,0.462845 -0.07902,0.248355 -0.191911,0.553156 -0.112889,0.293511 -0.158044,0.462845 -0.04516,0.180622 -0.11289,0.349956 -0.05644,0.169333 -0.05644,0.169333 0,0.04516 -0.06773,0.191911 -0.05645,0.146756 -0.101601,0.31609 -0.04516,0.214489 -0.124177,0.485422 -0.06773,0.270934 -0.158045,0.485423 -0.124178,0.417689 -0.214489,0.835379 -0.09031,0.4064 -0.01129,0.530578 0.338667,0.01129 0.349956,0.146756 0.02258,0.124178 -0.349956,0.587023 -0.112889,0.282222 -0.225778,0.383822 -0.112889,0.112889 -0.225778,0.124178 -0.1016,0.01129 -0.191911,0.01129 z"
       id="text4-1-8"
       style="font-weight:bold;font-size:11.2889px;font-family:Caveat;-inkscape-font-specification:'Caveat Bold';fill:#cc3333;stroke-width:0.529167"
       aria-label="GP" />
    <path
       d="m 125.7912,25.57428 q -0.13546,0 -0.22577,-0.146756 -0.0677,-0.06773 -0.14676,-0.214489 -0.079,-0.146755 -0.0564,-0.474133 0.0339,-0.338667 0.24835,-0.982135 0.11289,-0.428978 0.18062,-0.620889 0.0677,-0.203201 0.0677,-0.293512 0,-0.124178 0.0226,-0.2032 0.0339,-0.09031 0.0339,-0.169333 0.0677,0 0.13547,-0.124178 0.0677,-0.124178 0.11289,-0.338667 0.0451,-0.191912 0.079,-0.304801 0.0452,-0.124178 0.0452,-0.169333 0.0564,-0.09031 0.11289,-0.282223 0.0677,-0.191911 0.2032,-0.462845 0.0903,-0.338667 0.2032,-0.699911 0.11288,-0.372534 0.22577,-0.688623 0.12418,-0.327378 0.2032,-0.508001 0.12418,-0.349956 0.19192,-0.485423 0.0677,-0.146755 0,-0.191911 -0.079,-0.05644 -0.079,-0.282222 0.0113,-0.237067 0.21449,-0.406401 0.12418,-0.146756 0.31609,-0.2032 0.19191,-0.06773 0.44027,-0.06773 0.24835,0 0.51929,0.02258 0.2032,0.01129 0.42898,0.01129 0.23706,0 0.29351,0 0.1016,0.04516 0.24835,0.1016 0.14676,0.05645 0.25965,0.112889 0.12418,0.04516 0.12418,0.07902 0,0.06773 0.0452,0.09031 0.0564,0.01129 0.11289,0.02258 0.079,0 0.25964,0.146755 0.18063,0.135467 0.36125,0.338667 0.19191,0.191912 0.27093,0.383823 0.0903,0.191911 0.14676,0.361245 0.0677,0.169333 0.0113,0.485423 -0.0113,0.169333 -0.0565,0.338667 -0.0339,0.169333 -0.079,0.225778 -0.0677,0.04515 -0.12418,0.112889 -0.0564,0.06773 -0.0564,0.124177 0,0.04516 -0.0903,0.225778 -0.0903,0.169334 -0.22578,0.395112 -0.13547,0.214489 -0.29351,0.428978 -0.15805,0.214489 -0.29351,0.338667 -0.14676,0.180623 -0.34996,0.338667 -0.19191,0.158045 -0.34996,0.259645 -0.29351,0.135467 -0.67733,0.259645 -0.37253,0.124178 -0.72249,0.2032 -0.34995,0.06773 -0.56444,0.05644 -0.32738,0.04516 -0.42898,0.09031 -0.1016,0.03387 -0.14676,0.191911 -0.0564,0.146756 -0.11289,0.3048 -0.0451,0.158045 -0.0451,0.225778 -0.0226,0.04516 -0.1016,0.248356 -0.0677,0.2032 -0.16934,0.474134 -0.0903,0.270933 -0.16933,0.541867 -0.079,0.270934 -0.12418,0.462845 -0.0451,0.158045 -0.19191,0.237067 -0.13547,0.07902 -0.23707,0.07902 z m 1.60303,-3.770493 q 0.0452,0.04516 0.29351,0.01129 0.24836,-0.03387 0.59831,-0.169333 0.22578,-0.07902 0.45156,-0.191911 0.23706,-0.112889 0.45155,-0.248356 0.11289,-0.07902 0.23707,-0.191912 0.12418,-0.124177 0.34996,-0.4064 0.0339,-0.05645 0.11289,-0.214489 0.0903,-0.169334 0.15804,-0.316089 0.1016,-0.158045 0.2032,-0.462845 0.1016,-0.316089 0.0452,-0.51929 -0.0564,-0.293511 -0.22578,-0.485422 -0.16934,-0.203201 -0.42898,-0.293512 -0.24836,-0.04516 -0.41769,-0.05644 -0.15804,-0.01129 -0.34996,0.02258 -0.18062,0.05644 -0.25964,0.158044 -0.0677,0.1016 -0.2032,0.428978 -0.079,0.158045 -0.22578,0.440267 -0.14675,0.270934 -0.24835,0.553157 -0.2032,0.745067 -0.36125,1.140179 -0.14675,0.395111 -0.19191,0.519289 0.0113,0.124178 -0.0113,0.180622 -0.0226,0.04516 0.0226,0.1016 z m 4.19947,3.409248 q -0.0564,0 -0.19191,-0.05644 -0.13546,-0.04516 -0.25964,-0.124178 -0.11289,-0.07902 -0.11289,-0.169334 0,0 -0.0113,-0.06773 0,-0.07902 -0.0452,-0.158045 0,-0.09031 0,-0.2032 0.0113,-0.124178 0.0564,-0.248356 0,-0.124177 0.0339,-0.270933 0.0339,-0.158045 0.079,-0.237067 0,-0.124178 0.0564,-0.316089 0.0677,-0.203201 0.11289,-0.372534 0.12418,-0.372534 0.18062,-0.541867 0.0677,-0.169334 0.0903,-0.248356 0.0226,-0.09031 0.0226,-0.180622 0.0339,-0.09031 0.1016,-0.327379 0.0677,-0.237066 0.13547,-0.485422 0.079,-0.259645 0.1016,-0.372534 0.0452,-0.04516 0.0452,-0.07902 0.0113,-0.04516 0.0113,-0.09031 0,0 0.079,-0.259644 0.079,-0.259645 0.2032,-0.598312 0.2032,-0.598312 0.27093,-0.869245 0.079,-0.270934 0.0677,-0.383823 0,-0.112889 -0.0564,-0.225778 -0.079,-0.146756 0,-0.225778 0.0452,-0.04516 0.079,-0.1016 0.0339,-0.06773 0.0339,-0.06773 0,-0.02258 0.15804,-0.09031 0.16934,-0.07902 0.4064,-0.169333 0.23707,-0.1016 0.47414,-0.180623 0.23706,-0.09031 0.38382,-0.135466 0.0339,0 0.15804,0 0.13547,0 0.28223,0 0.15804,0 0.24835,0 0.29351,0.04515 0.59831,0.169333 0.31609,0.124178 0.53058,0.349956 0.13547,0.124178 0.29351,0.349956 0.16934,0.225778 0.33867,0.609601 0,0.04515 0.0226,0.191911 0.0339,0.135467 0.0339,0.270934 0,0.338667 -0.16934,0.767645 -0.15804,0.428978 -0.47413,0.869245 -0.31609,0.428978 -0.76765,0.801512 -0.47413,0.383823 -0.98213,0.519289 -0.508,0.135467 -0.90311,0.05645 -0.22578,-0.09031 -0.3048,-0.248356 -0.079,-0.169333 -0.0677,-0.316089 0.0113,-0.146756 0.0452,-0.180622 0.0903,-0.02258 0.27093,-0.01129 0.18062,0 0.57574,-0.146756 0.12417,-0.04516 0.25964,-0.1016 0.13547,-0.06773 0.21449,-0.112889 0.22578,-0.146756 0.45156,-0.372534 0.23706,-0.225778 0.48542,-0.620889 0.1016,-0.158045 0.14675,-0.349956 0.0452,-0.191912 0.0564,-0.383823 0.0226,-0.2032 0.0226,-0.349956 0.0903,-0.293511 -0.11289,-0.485423 -0.19191,-0.2032 -0.62089,-0.248355 -0.13547,-0.03387 -0.33867,-0.01129 -0.19191,0.02258 -0.36124,0.07902 -0.16934,0.04516 -0.25965,0.1016 -0.0452,0 -0.0564,0.06773 -0.0113,0.06773 -0.0564,0.158044 0,0.07902 -0.0677,0.338667 -0.0677,0.248356 -0.15805,0.462845 -0.079,0.248356 -0.19191,0.553156 -0.11289,0.293512 -0.15804,0.462845 -0.0452,0.180622 -0.11289,0.349956 -0.0564,0.169334 -0.0564,0.169334 0,0.04515 -0.0677,0.191911 -0.0564,0.146756 -0.1016,0.316089 -0.0452,0.214489 -0.12418,0.485423 -0.0677,0.270933 -0.15804,0.485422 -0.12418,0.41769 -0.21449,0.835379 -0.0903,0.4064 -0.0113,0.530578 0.33867,0.01129 0.34996,0.146756 0.0226,0.124178 -0.34996,0.587023 -0.11289,0.282222 -0.22578,0.383823 -0.11289,0.112889 -0.22577,0.124177 -0.10161,0.01129 -0.19192,0.01129 z"
       id="text4-1-8-7"
       style="font-weight:bold;font-size:11.2889px;font-family:Caveat;-inkscape-font-specification:'Caveat Bold';fill:#cc3333;stroke-width:0.529167"
       aria-label="PP" />
  </g>
  <metadata
     id="metadata1">
    <rdf:RDF>
      <cc:Work
         rdf:about="">
        <dc:title>7Asset 4</dc:title>
      </cc:Work>
    </rdf:RDF>
  </metadata>
</svg>
