<?xml version="1.0" encoding="UTF-8" standalone="no"?>
<!-- Created using Krita: https://krita.org -->

<svg
   width="345.36pt"
   height="210.24pt"
   viewBox="0 0 345.36 210.24"
   version="1.1"
   id="svg18"
   sodipodi:docname="main-stats.svg"
   xml:space="preserve"
   inkscape:version="1.3 (0e150ed6c4, 2023-07-21)"
   xmlns:inkscape="http://www.inkscape.org/namespaces/inkscape"
   xmlns:sodipodi="http://sodipodi.sourceforge.net/DTD/sodipodi-0.dtd"
   xmlns="http://www.w3.org/2000/svg"
   xmlns:svg="http://www.w3.org/2000/svg"
   xmlns:krita="http://krita.org/namespaces/svg/krita"><sodipodi:namedview
     id="namedview18"
     pagecolor="#ffffff"
     bordercolor="#000000"
     borderopacity="0.25"
     inkscape:showpageshadow="2"
     inkscape:pageopacity="0.0"
     inkscape:pagecheckerboard="0"
     inkscape:deskcolor="#d1d1d1"
     inkscape:document-units="pt"
     inkscape:zoom="2.9588907"
     inkscape:cx="198.21618"
     inkscape:cy="157.49146"
     inkscape:window-width="1918"
     inkscape:window-height="1352"
     inkscape:window-x="1593"
     inkscape:window-y="1084"
     inkscape:window-maximized="0"
     inkscape:current-layer="svg18" /><defs
     id="defs1" /><text
     id="shape1"
     krita:useRichText="true"
     krita:textVersion="2"
     transform="matrix(0.988927425487036 -0.148399604471627 0.148399604471627 0.988927425487036 51.5741415521091 42.43019101363)"
     fill="#3c1f14"
     stroke-opacity="0"
     stroke="#000000"
     stroke-width="0"
     stroke-linecap="square"
     stroke-linejoin="bevel"
     font-family="Dancing Script"
     font-size="10.6666666666667"
     font-size-adjust="0.276059"
     font-stretch="normal"
     letter-spacing="0"
     word-spacing="0"><tspan
       x="0"
       id="tspan1">level</tspan></text><text
     id="shape03"
     krita:useRichText="true"
     krita:textVersion="2"
     transform="matrix(0.988613328173756 -0.150477817660381 0.150477817660381 0.988613328173756 99.6425879154706 51.8933184107177)"
     fill="#3c1f14"
     stroke-opacity="0"
     stroke="#000000"
     stroke-width="0"
     stroke-linecap="square"
     stroke-linejoin="bevel"
     font-family="Dancing Script"
     font-size="10.6666666666667"
     font-size-adjust="0.276059"
     font-stretch="normal"
     letter-spacing="0"
     word-spacing="0"><tspan
       x="0"
       id="tspan2">ac</tspan></text><text
     id="shape04"
     krita:useRichText="true"
     krita:textVersion="2"
     transform="rotate(15.588774)"
     fill="#3c1f14"
     stroke-opacity="0"
     stroke="#000000"
     stroke-width="0"
     stroke-linecap="square"
     stroke-linejoin="bevel"
     font-family="'Dancing Script'"
     font-size="8px"
     font-size-adjust="0.276059"
     font-stretch="normal"
     letter-spacing="0"
     word-spacing="0"
     x="58.687069"
     y="42.641281"><tspan
       x="58.687069"
       id="tspan3">initiative</tspan></text><text
     id="shape05"
     krita:useRichText="true"
     krita:textVersion="2"
     transform="matrix(0.984611941886795 0.174754424677713 -0.174754424677713 0.984611941886795 118.074867103576 39.0179215018278)"
     fill="#3c1f14"
     stroke-opacity="0"
     stroke="#000000"
     stroke-width="0"
     stroke-linecap="square"
     stroke-linejoin="bevel"
     font-family="Dancing Script"
     font-size="10.6666666666667"
     font-size-adjust="0.276059"
     font-stretch="normal"
     letter-spacing="0"
     word-spacing="0"><tspan
       x="0"
       id="tspan4">speed</tspan></text><text
     id="shape06"
     krita:useRichText="true"
     krita:textVersion="2"
     transform="matrix(0.999998988981411 -0.00136464916299503 0.00136464916299503 0.999998988981411 52.4737893949332 91.486652704232)"
     fill="#3c1f14"
     stroke-opacity="0"
     stroke="#000000"
     stroke-width="0"
     stroke-linecap="square"
     stroke-linejoin="bevel"
     font-family="Dancing Script"
     font-size="9.33333333333333"
     font-size-adjust="0.276059"
     font-stretch="normal"
     letter-spacing="0"
     word-spacing="0"><tspan
       x="0"
       id="tspan5">hp</tspan></text><path
     id="shape3"
     transform="matrix(0.999999016609667 -0.00136464920069795 0.00136464920069795 0.999999016609667 53.929703028395 99.3713294216011)"
     fill="none"
     stroke="#3c1f14"
     stroke-width="0.48"
     stroke-linecap="square"
     stroke-linejoin="bevel"
     d="M15.3584 0C15.3584 1.48659 1.33522 17.8191 0 17.8191"
     sodipodi:nodetypes="cc" /><path
     id="shape4"
     transform="matrix(0.999999016609672 -0.00136464920069796 0.00136464920069796 0.999999016609672 57.547129576719 136.704323719861)"
     fill="none"
     stroke="#3c1f14"
     stroke-width="0.48"
     stroke-linecap="square"
     stroke-linejoin="bevel"
     d="M0 0.339411C2.60319 0.339411 4.9809 0 7.46705 0"
     sodipodi:nodetypes="cc" /><path
     id="shape5"
     transform="matrix(0.999999016609672 -0.00136464920069796 0.00136464920069796 0.999999016609672 61.1063124621707 133.305351159765)"
     fill="none"
     stroke="#3c1f14"
     stroke-width="0.48"
     stroke-linecap="square"
     stroke-linejoin="bevel"
     d="M0 0C0 2.25484 0.339411 4.6589 0.339411 6.95793"
     sodipodi:nodetypes="cc" /><path
     id="shape6"
     transform="matrix(0.999999016609672 -0.00136464920069796 0.00136464920069796 0.999999016609672 45.0610177642646 143.000476609712)"
     fill="none"
     stroke="#3c1f14"
     stroke-width="0.48"
     stroke-linecap="square"
     stroke-linejoin="bevel"
     d="M20.98 1.35765C20.98 0.125399 16.202 0 15.21 0C-2.01829 0 -5.45811 29.2014 9.27029 34.1108C37.0371 43.3664 36.7203 2.37588 19.792 2.37588"
     sodipodi:nodetypes="cccc" /><text
     id="shape7"
     krita:useRichText="true"
     krita:textVersion="2"
     transform="matrix(0.999999016609672 -0.00136464920069796 0.00136464920069796 0.999999016609672 52.4776432256131 152.596251413939)"
     fill="#3c1f14"
     stroke-opacity="0"
     stroke="#000000"
     stroke-width="0"
     stroke-linecap="square"
     stroke-linejoin="bevel"
     font-family="Dancing Script"
     font-size="9.33333333333333"
     font-size-adjust="0.276059"
     font-stretch="normal"
     letter-spacing="0"
     word-spacing="0"><tspan
       x="0"
       id="tspan6">temp</tspan></text><text
     id="shape0"
     krita:useRichText="true"
     krita:textVersion="2"
     transform="matrix(0.999999042737704 -0.00136464923635358 0.00136464923635358 0.999999042737704 131.817421016477 108.635007791182)"
     fill="#34120c"
     stroke-opacity="0"
     stroke="#000000"
     stroke-width="0"
     stroke-linecap="square"
     stroke-linejoin="bevel"
     font-family="Dancing Script"
     font-size="9.33333333333333"
     font-size-adjust="0.276059"
     font-stretch="normal"
     letter-spacing="0"
     word-spacing="0"><tspan
       x="0"
       id="tspan7">hit dice</tspan></text><g
     id="group0"
     transform="matrix(0.0495270091211616 -6.75870598746145e-05 6.75870598746144e-05 0.0495270091211616 97.4550874651878 99.9332761010274)"
     fill="none"><path
       id="shape11"
       transform="translate(71.9999999999998, 37.1429999999998)"
       fill="#34120c"
       stroke-opacity="0"
       stroke="#000000"
       stroke-width="0"
       stroke-linecap="square"
       stroke-linejoin="bevel"
       d="M184 0L5.896 306.71L362.104 306.71ZM158.154 12.647L0 127.09L0 285ZM209.844 12.647L368 285.001L368 127.089ZM77.328 102.667L77.328 124.453L68.842 134.133L68.842 117.191C66.07 120.431 63.15 123.558 60.457 126.855C63.993 127.148 62.941 132.285 62.664 134.607C60.918 144.143 54.51 152.182 49.26 159.397C47.317 161.941 45.317 164.472 43.252 166.904C38.602 170.304 34.762 171.294 32.477 165.441C32.771 157.635 36.317 150.221 40.523 144.474L45.811 136.556C45.763 139.018 45.911 141.526 45.739 143.961C43.399 148.308 38.973 153.421 39.981 158.569C47.741 159.443 52.201 147.706 54.503 141.989C55.335 139.229 56.611 136.531 53.085 136.555L53.085 129.291ZM289.458 103.877L334.311 158.341L334.311 165.603L304.007 129.293L304.007 137.765L297.947 130.503C297.792 126.353 296.523 122.126 295.522 118.4C293.662 115.464 291.562 112.696 289.462 109.93ZM184.07 166.717C192.44 166.717 198.803 168.247 203.158 171.304C207.513 174.331 209.691 178.779 209.691 184.648C209.691 188.572 208.611 191.846 206.448 194.471C204.318 197.097 201.151 199.043 196.95 200.309C201.644 201.607 205.18 203.724 207.56 206.659C209.968 209.561 211.174 213.235 211.174 217.683C211.174 224.54 208.888 229.73 204.316 233.253C199.776 236.743 193.028 238.486 184.07 238.486C175.082 238.486 168.286 236.742 163.684 233.252C159.112 229.73 156.826 224.54 156.826 217.682C156.826 213.235 158.016 209.562 160.396 206.658C162.804 203.723 166.356 201.606 171.051 200.308C166.851 199.043 163.685 197.098 161.554 194.471C159.424 191.846 158.356 188.571 158.356 184.649C158.356 178.812 160.536 174.364 164.89 171.306C169.244 168.248 175.638 166.72 184.07 166.72ZM184.07 177.929C181.23 177.929 179.035 178.671 177.49 180.154C175.977 181.636 175.22 183.737 175.22 186.454C175.22 189.204 175.977 191.32 177.49 192.802C179.035 194.285 181.23 195.027 184.07 195.027C186.85 195.027 188.996 194.285 190.51 192.802C192.023 191.32 192.78 189.204 192.78 186.455C192.78 183.705 192.023 181.605 190.51 180.155C188.996 178.671 186.85 177.929 184.07 177.929ZM184.07 206.191C180.734 206.191 178.17 207.103 176.38 208.925C174.587 210.748 173.69 213.358 173.69 216.755C173.69 220.153 174.587 222.763 176.38 224.585C178.17 226.377 180.734 227.273 184.07 227.273C187.375 227.273 189.907 226.377 191.668 224.586C193.428 222.762 194.308 220.152 194.308 216.754C194.308 213.326 193.428 210.716 191.668 208.924C189.908 207.102 187.375 206.19 184.07 206.19ZM16.7 322.709L184 443.769L351.3 322.709ZM156.12 345.939L210.668 345.939L210.668 350.781C196.262 356.723 189.086 363.678 182.788 376.197L167.028 376.197C174.132 362.394 181.574 358.483 193.698 350.781L156.118 350.781Z"
       sodipodi:nodetypes="ccccccccccccccccccccccccccccccccccccccccccccccccccccccccccccccccccccccccccccccccccccccc" /></g><path
     id="shape2"
     transform="matrix(0.999999973871937 0 0 0.999999973871937 43.8579446313838 84.1739907435857)"
     fill="none"
     stroke="#3c1f14"
     stroke-width="0.48"
     stroke-linecap="square"
     stroke-linejoin="bevel"
     d="M11.1267 0C39.9689 0 44.2324 48.8511 14.7754 45.9054C-5.14051 43.9138 -3.9379 0 12.4843 0"
     sodipodi:nodetypes="ccc" /><text
     id="shape41"
     krita:useRichText="true"
     krita:textVersion="2"
     transform="matrix(0.999996725951487 0.00254869186146562 -0.00254869186146562 0.999996725951487 96.9453579466803 173.245604025667)"
     fill="#3c1f14"
     stroke-opacity="0"
     stroke="#000000"
     stroke-width="0"
     stroke-linecap="square"
     stroke-linejoin="bevel"
     font-family="Dancing Script"
     font-size="8"
     font-size-adjust="0.276059"
     font-stretch="normal"
     letter-spacing="0"
     word-spacing="0"><tspan
       x="0"
       id="tspan8">proficiency</tspan><tspan
       x="0"
       dy="9.59375"
       id="tspan9">bonus</tspan></text><text
     id="shape51"
     krita:useRichText="true"
     krita:textVersion="2"
     transform="matrix(0.999999973871937 0 0 0.999999973871937 283.527375302893 20.2070651713329)"
     fill="#3c1f14"
     stroke-opacity="0"
     stroke="#000000"
     stroke-width="0"
     stroke-linecap="square"
     stroke-linejoin="bevel"
     font-family="Dancing Script"
     font-size="10.6666666666667"
     font-size-adjust="0.276059"
     font-stretch="normal"
     letter-spacing="0"
     word-spacing="0"><tspan
       x="0"
       id="tspan10">abilities</tspan></text><text
     id="shape61"
     krita:useRichText="true"
     krita:textVersion="2"
     transform="matrix(0.999999973871937 0 0 0.999999973871937 194.400006605165 35.3199990577286)"
     fill="#3c1f14"
     stroke-opacity="0"
     stroke="#000000"
     stroke-width="0"
     stroke-linecap="square"
     stroke-linejoin="bevel"
     font-family="Dancing Script"
     font-size="8"
     font-size-adjust="0.276059"
     font-stretch="normal"
     letter-spacing="0"
     word-spacing="0"><tspan
       x="0"
       id="tspan11">str</tspan></text><text
     id="shape01"
     krita:useRichText="true"
     krita:textVersion="2"
     transform="matrix(0.999999963087601 0 0 0.999999963087601 237.512045822693 28.878676171448)"
     fill="#3c1f14"
     stroke-opacity="0"
     stroke="#000000"
     stroke-width="0"
     stroke-linecap="square"
     stroke-linejoin="bevel"
     font-family="Dancing Script"
     font-size="8"
     font-size-adjust="0.276059"
     font-stretch="normal"
     letter-spacing="0"
     word-spacing="0"><tspan
       x="0"
       id="tspan12">con</tspan></text><text
     id="text13"
     krita:useRichText="true"
     krita:textVersion="2"
     fill="#3c1f14"
     stroke-opacity="0"
     stroke="#000000"
     stroke-width="0"
     stroke-linecap="square"
     stroke-linejoin="bevel"
     font-family="'Dancing Script'"
     font-size="8px"
     font-size-adjust="0.276059"
     font-stretch="normal"
     letter-spacing="0"
     word-spacing="0"
     x="282.70316"
     y="36.410591"><tspan
       x="282.70316"
       id="tspan13">wis</tspan></text><text
     id="shape02"
     krita:useRichText="true"
     krita:textVersion="2"
     transform="matrix(0.999999942212848 0 0 0.999999942212848 193.363498661862 105.850874495193)"
     fill="#3c1f14"
     stroke-opacity="0"
     stroke="#000000"
     stroke-width="0"
     stroke-linecap="square"
     stroke-linejoin="bevel"
     font-family="Dancing Script"
     font-size="8"
     font-size-adjust="0.276059"
     font-stretch="normal"
     letter-spacing="0"
     word-spacing="0"><tspan
       x="0"
       id="tspan14">dex</tspan></text><text
     id="shape031"
     krita:useRichText="true"
     krita:textVersion="2"
     fill="#3c1f14"
     stroke-opacity="0"
     stroke="#000000"
     stroke-width="0"
     stroke-linecap="square"
     stroke-linejoin="bevel"
     font-family="'Dancing Script'"
     font-size="8px"
     font-size-adjust="0.276059"
     font-stretch="normal"
     letter-spacing="0"
     word-spacing="0"
     x="237.80609"
     y="93.854744"><tspan
       x="237.80609"
       id="tspan15">int</tspan></text><text
     id="shape041"
     krita:useRichText="true"
     krita:textVersion="2"
     fill="#3c1f14"
     stroke-opacity="0"
     stroke="#000000"
     stroke-width="0"
     stroke-linecap="square"
     stroke-linejoin="bevel"
     font-family="'Dancing Script'"
     font-size="8px"
     font-size-adjust="0.276059"
     font-stretch="normal"
     letter-spacing="0"
     word-spacing="0"
     x="282.00867"
     y="132.25966"><tspan
       x="282.00867"
       id="tspan16">cha</tspan></text><text
     id="text17"
     krita:useRichText="true"
     krita:textVersion="2"
     transform="matrix(0.999999031024941 -0.00136464922036975 0.00136464922036975 0.999999031024941 127.79317273648 88.3641954935533)"
     fill="#34120c"
     stroke-opacity="0"
     stroke="#000000"
     stroke-width="0"
     stroke-linecap="square"
     stroke-linejoin="bevel"
     font-family="Dancing Script"
     font-size="9.33333333333333"
     font-size-adjust="0.173913"
     font-stretch="normal"
     letter-spacing="0"
     word-spacing="0"><tspan
       x="0"
       id="tspan17">inspiration</tspan></text><text
     id="text18"
     krita:useRichText="true"
     krita:textVersion="2"
     transform="matrix(0.985553887648613 -0.169361881439359 0.169361881439359 0.985553887648613 89.0553674113656 143.420037812202)"
     fill="#34120c"
     stroke-opacity="0"
     stroke="#000000"
     stroke-width="0"
     stroke-linecap="square"
     stroke-linejoin="bevel"
     font-family="Dancing Script"
     font-size="9.33333333333333"
     font-size-adjust="0.173913"
     font-stretch="normal"
     letter-spacing="0"
     word-spacing="0"><tspan
       x="0"
       id="tspan18">death saves</tspan></text></svg>
